<svg width="86" height="102" viewBox="0 0 86 102" fill="none" xmlns="http://www.w3.org/2000/svg">
<rect x="0.5" y="0.5" width="69.6872" height="23" rx="3.5" fill="#8CBAFA"/>
<path fill-rule="evenodd" clip-rule="evenodd" d="M18.8645 14.3589C18.9185 15.5803 17.9327 16.6131 16.663 16.665C16.5695 16.6689 12.0102 16.6597 12.0102 16.6597C10.7466 16.7556 9.64073 15.8477 9.54106 14.6309C9.53355 14.5402 9.5356 9.64813 9.5356 9.64813C9.47962 8.42544 10.464 7.38999 11.7344 7.33612C11.8293 7.33152 16.3825 7.34006 16.3825 7.34006C17.6522 7.24545 18.7615 8.16001 18.8598 9.3827C18.8666 9.47074 18.8645 14.3589 18.8645 14.3589Z" fill="#0E0D0F" stroke="#0E0D0F" stroke-linecap="round" stroke-linejoin="round"/>
<path fill-rule="evenodd" clip-rule="evenodd" d="M18.8667 10.6532L21.062 8.85656C21.606 8.41123 22.422 8.79923 22.4214 9.50123L22.4134 14.4006C22.4127 15.1026 21.596 15.4872 21.0534 15.0419L18.8667 13.2452" fill="#0E0D0F"/>
<path d="M18.8667 10.6532L21.062 8.85656C21.606 8.41123 22.422 8.79923 22.4214 9.50123L22.4134 14.4006C22.4127 15.1026 21.596 15.4872 21.0534 15.0419L18.8667 13.2452" stroke="#0E0D0F" stroke-linecap="round" stroke-linejoin="round"/>
<path d="M35.084 16.326C37.304 16.326 38.168 14.502 38.168 11.994C38.168 9.498 37.304 7.674 35.084 7.674C32.864 7.674 32 9.498 32 11.994C32 14.502 32.864 16.326 35.084 16.326ZM35.084 15.102C33.764 15.102 33.404 13.83 33.404 11.994C33.404 10.17 33.776 8.898 35.084 8.898C36.392 8.898 36.764 10.17 36.764 11.994C36.764 13.83 36.404 15.102 35.084 15.102Z" fill="#0E0D0F"/>
<path d="M42.3672 16.326C44.6352 16.326 45.5832 14.31 45.5832 11.85C45.5832 9.402 44.6712 7.674 42.4992 7.674C40.6392 7.674 39.5352 8.934 39.5352 10.53C39.5352 11.958 40.5072 13.266 42.2712 13.266C43.2192 13.266 43.8312 12.858 44.2032 12.294H44.2512C44.2512 13.938 43.6632 15.09 42.3672 15.09C41.5752 15.09 41.0592 14.67 40.9632 14.046H39.6072C39.7632 15.33 40.7592 16.326 42.3672 16.326ZM42.4872 12.114C41.4672 12.114 40.9152 11.418 40.9152 10.506C40.9152 9.582 41.5272 8.898 42.4872 8.898C43.4712 8.898 44.0712 9.582 44.0712 10.518C44.0712 11.418 43.4952 12.114 42.4872 12.114Z" fill="#0E0D0F"/>
<path d="M47.7331 12.246C48.2851 12.246 48.5971 11.898 48.5971 11.358C48.5971 10.842 48.2851 10.494 47.7331 10.494C47.1571 10.494 46.8571 10.842 46.8571 11.358C46.8571 11.898 47.1571 12.246 47.7331 12.246ZM47.7331 16.326C48.2851 16.326 48.5971 15.978 48.5971 15.45C48.5971 14.922 48.2851 14.574 47.7331 14.574C47.1571 14.574 46.8571 14.922 46.8571 15.45C46.8571 15.978 47.1571 16.326 47.7331 16.326Z" fill="#0E0D0F"/>
<path d="M53.3165 16.218H54.6965V14.55H55.7765V13.326H54.6965V7.818H52.8965L49.5485 13.182V14.55H53.3165V16.218ZM50.8925 13.326V13.278L53.2685 9.378H53.3165V13.326H50.8925Z" fill="#0E0D0F"/>
<path d="M59.7352 16.326C61.6672 16.326 62.6872 15.114 62.6872 13.422C62.6872 11.862 61.6432 10.686 59.9512 10.686C59.1952 10.686 58.6552 10.938 58.3192 11.262H58.2712L58.4272 9.054H62.1832V7.818H57.2752L56.9512 12.57H58.3192C58.6312 12.15 59.0512 11.838 59.7472 11.838C60.8272 11.838 61.2952 12.594 61.2952 13.446C61.2952 14.334 60.8632 15.102 59.7352 15.102C58.7272 15.102 58.2352 14.478 58.1992 13.794H56.8192C56.8192 15.198 57.9712 16.326 59.7352 16.326Z" fill="#0E0D0F"/>
<rect x="0.5" y="0.5" width="69.6872" height="23" rx="3.5" stroke="#0E0D0F"/>
<rect x="2.79472" y="24.8784" width="69.7723" height="23" rx="3.5" transform="rotate(-3.93391 2.79472 24.8784)" fill="#8CBAFA"/>
<path fill-rule="evenodd" clip-rule="evenodd" d="M22.0669 37.4447C22.2045 38.6595 21.2919 39.7575 20.0288 39.8964C19.9357 39.9067 15.3865 40.2103 15.3865 40.2103C14.1325 40.3927 12.9669 39.5627 12.784 38.3557C12.7703 38.2657 12.4367 33.385 12.4367 33.385C12.297 32.1691 13.208 31.0685 14.4717 30.9276C14.566 30.9165 19.1091 30.6127 19.1091 30.6127C20.3693 30.4312 21.5387 31.2675 21.7207 32.4805C21.7336 32.5679 22.0669 37.4447 22.0669 37.4447Z" fill="#0E0D0F" stroke="#0E0D0F" stroke-linecap="round" stroke-linejoin="round"/>
<path fill-rule="evenodd" clip-rule="evenodd" d="M21.8148 33.7476L23.8817 31.8046C24.3938 31.323 25.2345 31.6541 25.282 32.3545L25.6102 37.2428C25.6577 37.9432 24.8693 38.383 24.2974 37.9759L21.9926 36.3335" fill="#0E0D0F"/>
<path d="M21.8148 33.7476L23.8817 31.8046C24.3938 31.323 25.2345 31.6541 25.282 32.3545L25.6102 37.2428C25.6577 37.9432 24.8693 38.383 24.2974 37.9759L21.9926 36.3335" stroke="#0E0D0F" stroke-linecap="round" stroke-linejoin="round"/>
<path d="M37.4054 38.4218L38.7822 38.3271L38.2059 29.9469L36.8172 30.0424L34.8428 31.7659L34.935 33.1067L35.0547 33.0985L36.8809 31.4934L36.9288 31.4902L37.4054 38.4218Z" fill="#0E0D0F"/>
<path d="M43.6119 38.1032C45.8266 37.9509 46.5635 36.072 46.3914 33.5699C46.2202 31.0797 45.2331 29.3193 43.0183 29.4716C40.8035 29.6239 40.0667 31.5029 40.2379 33.993C40.41 36.4951 41.3971 38.2555 43.6119 38.1032ZM43.5279 36.8821C42.211 36.9727 41.7646 35.7284 41.6386 33.8967C41.5135 32.077 41.7973 30.7825 43.1023 30.6927C44.4072 30.603 44.8656 31.8465 44.9907 33.6662C45.1167 35.4979 44.8448 36.7916 43.5279 36.8821Z" fill="#0E0D0F"/>
<path d="M48.2367 37.6769L49.6015 37.5831L49.3676 34.1831C49.2968 33.1536 49.8526 32.4899 50.7026 32.4314C51.5646 32.3721 52.0054 32.835 52.0646 33.6969L52.319 37.3962L53.6838 37.3024L53.4064 33.2679C53.31 31.8672 52.3896 31.0765 51.0129 31.1712C50.127 31.2321 49.5787 31.6547 49.2797 32.2045L49.2318 32.2078L48.9922 28.724L47.6275 28.8179L48.2367 37.6769Z" fill="#0E0D0F"/>
<path d="M57.0816 37.0687L58.4584 36.974L57.8821 28.5938L56.4934 28.6893L54.519 30.4128L54.6112 31.7537L54.7309 31.7454L56.5571 30.1404L56.605 30.1371L57.0816 37.0687Z" fill="#0E0D0F"/>
<path d="M63.0726 36.765C65 36.6324 65.9345 35.3533 65.8184 33.6653C65.7114 32.109 64.5891 31.0074 62.9011 31.1234C62.1469 31.1753 61.6255 31.4638 61.3125 31.81L61.2646 31.8133L61.2687 29.5998L65.0159 29.3422L64.9311 28.1091L60.0347 28.4458L60.0374 33.2088L61.4022 33.115C61.6847 32.6745 62.0823 32.3345 62.7766 32.2867C63.8541 32.2126 64.3729 32.9347 64.4313 33.7847C64.4922 34.6706 64.1139 35.4665 62.9886 35.5439C61.983 35.613 61.4493 35.0242 61.3665 34.3443L59.9897 34.439C60.086 35.8397 61.3127 36.886 63.0726 36.765Z" fill="#0E0D0F"/>
<rect x="2.79472" y="24.8784" width="69.7723" height="23" rx="3.5" transform="rotate(-3.93391 2.79472 24.8784)" stroke="#0E0D0F"/>
<rect x="5.54705" y="51.5085" width="71.5067" height="23" rx="3.5" transform="rotate(-13.2623 5.54705 51.5085)" fill="#8CBAFA"/>
<path fill-rule="evenodd" clip-rule="evenodd" d="M26.6011 60.7848C26.9337 61.9612 26.2112 63.1926 24.9873 63.5344C24.8972 63.5597 20.4573 64.5967 20.4573 64.5967C19.2495 64.9799 17.9648 64.3499 17.5886 63.1884C17.5605 63.1019 16.4402 58.3398 16.4402 58.3398C16.1053 57.1625 16.8258 55.9289 18.05 55.585C18.1413 55.5588 22.575 54.5225 22.575 54.5225C23.7891 54.1392 25.0787 54.7749 25.4548 55.9424C25.4817 56.0265 26.6011 60.7848 26.6011 60.7848Z" fill="#0E0D0F" stroke="#0E0D0F" stroke-linecap="round" stroke-linejoin="round"/>
<path fill-rule="evenodd" clip-rule="evenodd" d="M25.753 57.1774L27.4776 54.9251C27.9049 54.3668 28.7882 54.5573 28.9486 55.2407L30.0647 60.0112C30.2251 60.6946 29.5185 61.2564 28.8881 60.9474L26.3476 59.7003" fill="#0E0D0F"/>
<path d="M25.753 57.1774L27.4776 54.9251C27.9049 54.3668 28.7882 54.5573 28.9486 55.2407L30.0647 60.0112C30.2251 60.6946 29.5185 61.2564 28.8881 60.9474L26.3476 59.7003" stroke="#0E0D0F" stroke-linecap="round" stroke-linejoin="round"/>
<path d="M41.8954 59.2627L43.2385 58.9461L41.3115 50.7701L39.9566 51.0894L38.2877 53.1102L38.596 54.4184L38.7128 54.3908L40.2547 52.511L40.3014 52.5L41.8954 59.2627Z" fill="#0E0D0F"/>
<path d="M47.9681 57.9423C50.1289 57.433 50.5514 55.4595 49.976 53.0184C49.4034 50.5889 48.144 49.0118 45.9832 49.5211C43.8224 50.0304 43.3999 52.0039 43.9725 54.4334C44.5479 56.8745 45.8073 58.4516 47.9681 57.9423ZM47.6873 56.751C46.4025 57.0538 45.7603 55.8983 45.3391 54.1113C44.9206 52.3359 44.9909 51.0125 46.264 50.7124C47.5371 50.4124 48.191 51.5651 48.6095 53.3404C49.0307 55.1275 48.9721 56.4481 47.6873 56.751Z" fill="#0E0D0F"/>
<path d="M52.4626 56.772L53.7941 56.4582L53.0123 53.1411C52.7756 52.1366 53.2164 51.3916 54.0457 51.1961C54.8866 50.9979 55.3966 51.3832 55.5948 52.2242L56.4455 55.8333L57.777 55.5194L56.8493 51.5833C56.5272 50.2167 55.4908 49.5857 54.1476 49.9023C53.2833 50.106 52.8107 50.6119 52.6048 51.2029L52.5581 51.2139L51.757 47.815L50.4255 48.1288L52.4626 56.772Z" fill="#0E0D0F"/>
<path d="M59.1415 55.1979L64.5493 53.9233L64.263 52.7085L60.6655 53.5564L60.6545 53.5097L62.157 50.8871C62.9082 49.5758 63.2123 48.826 63.0031 47.9384C62.6892 46.6068 61.4329 45.8797 59.8327 46.2568C58.1859 46.645 57.3948 47.8917 57.7664 49.4685L59.0863 49.1574C58.866 48.223 59.3076 47.6381 60.1135 47.4482C60.9428 47.2527 61.4851 47.618 61.6475 48.3072C61.7989 48.9496 61.5538 49.4265 60.9365 50.5213L58.8882 54.1233L59.1415 55.1979Z" fill="#0E0D0F"/>
<path d="M68.6426 53.0694C70.5231 52.6262 71.2378 51.2125 70.8497 49.5657C70.4918 48.0473 69.2058 47.1421 67.559 47.5303C66.8231 47.7037 66.3554 48.0729 66.1026 48.4653L66.0559 48.4763L65.7012 46.2914L69.3571 45.4298L69.0735 44.2268L64.2964 45.3527L65.0712 50.0523L66.4027 49.7385C66.61 49.2581 66.9473 48.858 67.6247 48.6984C68.6759 48.4506 69.3048 49.0791 69.5003 49.9084C69.704 50.7727 69.4597 51.6193 68.3618 51.8781C67.3807 52.1093 66.7587 51.6148 66.5667 50.9573L65.2235 51.2739C65.5456 52.6405 66.9256 53.4741 68.6426 53.0694Z" fill="#0E0D0F"/>
<rect x="5.54705" y="51.5085" width="71.5067" height="23" rx="3.5" transform="rotate(-13.2623 5.54705 51.5085)" stroke="#0E0D0F"/>
<rect x="9.63888" y="78.8457" width="72.0773" height="23" rx="3.5" transform="rotate(-19.6239 9.63888 78.8457)" fill="#8CBAFA"/>
<path fill-rule="evenodd" clip-rule="evenodd" d="M31.5911 85.7319C32.0521 86.8643 31.4705 88.1682 30.292 88.6435C30.2052 88.6786 25.9076 90.2012 25.9076 90.2012C24.7496 90.7159 23.403 90.232 22.9005 89.1194C22.863 89.0365 21.2219 84.4279 21.2219 84.4279C20.7586 83.295 21.338 81.9891 22.5165 81.5117C22.6044 81.4755 26.896 79.9544 26.896 79.9544C28.0602 79.4389 29.4122 79.9277 29.9154 81.0464C29.9514 81.127 31.5911 85.7319 31.5911 85.7319Z" fill="#0E0D0F" stroke="#0E0D0F" stroke-linecap="round" stroke-linejoin="round"/>
<path fill-rule="evenodd" clip-rule="evenodd" d="M30.3486 82.2408L31.813 79.8112C32.1758 79.209 33.0747 79.3005 33.3099 79.9619L34.9478 84.5794C35.1829 85.2408 34.5428 85.8774 33.8821 85.6402L31.2191 84.6823" fill="#0E0D0F"/>
<path d="M30.3486 82.2408L31.813 79.8112C32.1758 79.209 33.0747 79.3005 33.3099 79.9619L34.9478 84.5794C35.1829 85.2408 34.5428 85.8774 33.8821 85.6402L31.2191 84.6823" stroke="#0E0D0F" stroke-linecap="round" stroke-linejoin="round"/>
<path d="M46.6226 82.5246L47.9224 82.0611L45.1013 74.149L43.7902 74.6165L42.3554 76.8097L42.8068 78.0757L42.9198 78.0354L44.2439 75.9963L44.2891 75.9801L46.6226 82.5246Z" fill="#0E0D0F"/>
<path d="M52.5116 80.5395C54.6026 79.7939 54.8039 77.7857 53.9616 75.4234C53.1233 73.0723 51.6969 71.6444 49.6059 72.39C47.5148 73.1356 47.3136 75.1438 48.1518 77.4948C48.9941 79.8572 50.4205 81.2851 52.5116 80.5395ZM52.1005 79.3866C50.8572 79.8299 50.0909 78.7527 49.4743 77.0233C48.8617 75.3053 48.7849 73.9822 50.0169 73.5429C51.249 73.1036 52.0265 74.1768 52.6391 75.8949C53.2557 77.6242 53.3438 78.9433 52.1005 79.3866Z" fill="#0E0D0F"/>
<path d="M56.8488 78.8784L58.1373 78.419L56.9928 75.2089C56.6462 74.2368 57.0018 73.4476 57.8043 73.1614C58.6181 72.8713 59.1676 73.1977 59.4578 74.0115L60.7031 77.5041L61.9916 77.0447L60.6335 73.2356C60.162 71.9131 59.062 71.4008 57.7622 71.8642C56.9257 72.1625 56.5122 72.7176 56.373 73.3278L56.3278 73.3439L55.155 70.0547L53.8665 70.5142L56.8488 78.8784Z" fill="#0E0D0F"/>
<path d="M66.6465 75.385L67.9463 74.9215L67.3861 73.3504L68.4034 72.9877L67.9923 71.8348L66.975 72.1975L65.1252 67.0094L63.4298 67.6139L62.0777 73.7908L62.5371 75.0793L66.0863 73.8139L66.6465 75.385ZM63.392 73.475L63.3759 73.4298L64.3041 68.9584L64.3493 68.9423L65.6752 72.661L63.392 73.475Z" fill="#0E0D0F"/>
<path d="M72.9321 73.2585C75.0231 72.5129 75.2244 70.5047 74.3821 68.1424C73.5438 65.7913 72.1174 64.3634 70.0263 65.109C67.9353 65.8546 67.734 67.8628 68.5723 70.2139C69.4146 72.5762 70.841 74.0041 72.9321 73.2585ZM72.521 72.1056C71.2776 72.5489 70.5114 71.4717 69.8948 69.7423C69.2822 68.0243 69.2054 66.7012 70.4374 66.2619C71.6694 65.8226 72.447 66.8958 73.0596 68.6139C73.6762 70.3432 73.7643 71.6623 72.521 72.1056Z" fill="#0E0D0F"/>
<rect x="9.63888" y="78.8457" width="72.0773" height="23" rx="3.5" transform="rotate(-19.6239 9.63888 78.8457)" stroke="#0E0D0F"/>
</svg>
