<svg width="158" height="116" viewBox="0 0 158 116" fill="none" xmlns="http://www.w3.org/2000/svg">
<path d="M99.5837 65.3236C98.0822 64.0376 96.1285 63.0045 94.3363 62.5471C93.2277 62.2673 92.4796 62.1759 91.2686 62.1759C89.245 62.1759 87.5336 62.5794 85.6983 63.4995C82.3454 65.1784 80.0635 67.9925 79.0786 71.6623C79.0032 71.9421 78.944 72.2272 78.944 72.2972V72.421H91.2902C98.0822 72.4156 103.652 72.3994 103.663 72.3779C103.674 72.3564 103.626 72.1089 103.556 71.8237C102.915 69.2947 101.478 66.9486 99.5837 65.3236Z" fill="#DBB509"/>
<path d="M130.746 61.5781C126.51 60.6472 122.097 61.9386 119.008 65.011C117.829 66.1841 116.995 67.4055 116.296 68.9929C115.268 71.312 114.972 73.9109 115.44 76.4991C115.87 78.8989 117.167 81.3472 118.965 83.1498C120.967 85.1622 123.744 86.5128 126.5 86.8249C127.189 86.9056 128.857 86.8949 129.54 86.8141C130.983 86.6366 132.14 86.2868 133.491 85.6304C135.644 84.5865 137.258 83.1713 138.598 81.1643C139.777 79.3994 140.487 77.4031 140.756 75.1055C141.101 72.1622 140.154 68.9014 138.205 66.3186C136.44 63.9779 133.674 62.2238 130.746 61.5781Z" fill="#DBB509"/>
<path d="M157.397 73.9758C156.966 67.6049 155.982 62.0196 154.27 56.2459C150.955 45.0592 144.992 34.4859 137.129 25.8443C127.29 15.0288 114.928 7.2589 101.064 3.16948C95.3649 1.48528 89.8538 0.527493 83.4116 0.0916461C82.0446 0.000172094 76.8995 -0.0321129 75.3495 0.0378379C66.0333 0.473685 57.3254 2.3785 48.8865 5.82761C45.6574 7.14591 41.7447 9.09915 38.6339 10.9394C27.3857 17.5901 17.9135 27.0173 11.17 38.2525C5.60504 47.529 1.99915 57.8979 0.637517 68.5411C0.131615 72.496 -0.0406064 75.5577 0.007831 79.6794C0.0508864 82.9295 0.180053 85.071 0.50835 87.8583C1.5363 96.5591 3.81286 104.507 7.5533 112.449C8.04305 113.493 9.11944 115.618 9.29166 115.882C9.33471 115.946 9.39392 116 9.42621 116L148.145 115.962C148.258 115.892 149.502 113.46 150.207 111.937C154.458 102.747 156.773 93.4866 157.424 83.0424C157.532 81.3098 157.515 75.7245 157.397 73.9758ZM47.7348 75.1542C47.6218 75.8429 47.2396 76.3326 46.5561 76.6769L46.1955 76.8599L43.1817 76.8922C41.524 76.9083 35.2326 76.9298 29.1994 76.9352H18.2364V77.0966C18.2364 77.3172 18.5701 78.5925 18.7746 79.1413C19.1944 80.2767 20.0501 81.7618 20.879 82.7788C22.7357 85.0602 25.5343 86.6799 28.5428 87.218C29.151 87.3256 29.4201 87.3417 30.6149 87.3417C32.111 87.3417 32.547 87.2933 33.7956 86.992C35.7761 86.5077 37.8428 85.3454 39.5058 83.785C40.0332 83.29 40.6952 83.0855 41.4272 83.1823C42.9341 83.3922 43.7791 85.0441 43.0956 86.4431C42.778 87.0888 41.0881 88.6708 39.8503 89.4887C38.0043 90.7047 35.7116 91.4419 32.8968 91.7217C32.1164 91.8078 30.109 91.8401 29.3124 91.7863C25.1845 91.5119 21.3203 89.7631 18.3979 86.8359C16.6434 85.0818 15.4486 83.1985 14.5337 80.7556C13.2581 77.3442 13.1936 72.9911 14.3614 69.4559C16.6218 62.6061 22.8703 57.9893 30.4265 57.5911C32.6815 57.4728 35.4532 58.0754 37.7621 59.1839C39.6565 60.0932 41.1581 61.1586 42.6435 62.6491C45.3829 65.3933 47.1858 68.9232 47.6433 72.4368C47.7563 73.3139 47.8047 74.7291 47.7348 75.1542ZM62.9172 90.7155C62.7127 91.0653 62.2714 91.5172 61.9861 91.6571C61.561 91.8724 60.8398 91.9477 60.2155 91.8401C59.8926 91.7863 59.5266 91.6087 59.2521 91.3773C59.0045 91.1675 58.6117 90.6725 58.4717 90.398C58.4179 90.2958 56.8679 86.0826 55.0273 81.0354C53.1867 75.9882 51.3353 70.9356 50.9209 69.811C50.5065 68.6864 49.6992 66.5072 49.1341 64.9683C47.3042 60.0071 47.3042 60.0179 47.4119 59.3238C47.5303 58.5382 47.977 57.914 48.5851 57.6719C48.8488 57.5642 48.9888 57.5481 49.5377 57.5481C50.0867 57.5481 50.232 57.5696 50.4957 57.6719C50.8886 57.8279 51.3191 58.1723 51.5075 58.4844C51.5882 58.6135 53.7033 64.3333 56.2167 71.1939C58.7301 78.0544 60.7967 83.6451 60.8183 83.6236C60.8613 83.5805 61.2542 82.5313 70.7372 57.2737C74.5368 47.1523 78.0081 37.9027 78.4548 36.7189C78.9015 35.5351 79.3321 34.4697 79.4128 34.3514C79.612 34.0716 80.0264 33.7595 80.3923 33.6142C80.7745 33.4635 81.6894 33.4474 82.0554 33.5873C82.6043 33.7971 83.1264 34.346 83.3578 34.9594C83.5031 35.3522 83.5085 35.8795 83.3632 36.2669C83.304 36.4284 83.1102 36.9557 82.9326 37.4453C82.2329 39.3717 73.4335 63.1764 72.0019 67.013C68.6813 75.9075 63.1755 90.2689 62.9172 90.7155ZM107.835 76.2142C107.507 76.5263 107.297 76.6608 106.941 76.7845C106.635 76.8975 106.586 76.8975 92.7492 76.9298L78.8639 76.9621L78.88 77.1504C78.9123 77.4841 79.2514 78.7378 79.4559 79.2543C79.9295 80.4812 80.7529 81.864 81.6571 82.9348C82.755 84.2424 84.1005 85.2755 85.7527 86.0826C87.1574 86.766 88.5244 87.1642 90.026 87.3202C90.8979 87.4117 92.577 87.3579 93.3951 87.2126C95.8708 86.7767 97.932 85.7544 99.9287 83.9787C100.553 83.4245 100.865 83.2523 101.387 83.177C102.297 83.0478 103.163 83.4352 103.637 84.1778C104.094 84.8988 104.078 85.9858 103.605 86.6799C103.368 87.0189 102.157 88.2296 101.603 88.6762C99.2291 90.5864 96.4251 91.5603 92.6954 91.7755C91.6675 91.8455 90.9086 91.8455 89.9345 91.7809C85.3868 91.4903 81.022 89.295 78.1158 85.8405C75.0642 82.2084 73.7457 77.6778 74.2946 72.6844C74.666 69.2944 76.189 65.9637 78.5571 63.3432C82.206 59.3076 88.1638 57.0477 93.4381 57.7041C96.0807 58.0324 98.7662 59.1085 101.075 60.7551C104.466 63.1818 107.054 66.9699 107.996 70.8818C108.222 71.8127 108.314 72.4691 108.389 73.6152C108.491 75.1273 108.362 75.7138 107.835 76.2142ZM145.417 86.4539C145.379 89.8438 145.379 89.8707 145.255 90.1828C145.099 90.581 144.653 91.0653 144.244 91.2859C143.765 91.5388 143.248 91.6141 142.651 91.5172C142.032 91.415 141.37 90.9038 141.079 90.3066C140.885 89.9084 140.848 89.4349 140.848 86.9866C140.848 85.9858 140.831 85.1679 140.821 85.1679C140.805 85.1679 140.508 85.453 140.159 85.8028C137.887 88.0681 135.1 89.8707 132.549 90.7101C131.252 91.1406 130.089 91.3343 128.544 91.3881C125.488 91.4903 122.85 90.9361 120.202 89.634C119.67 89.3703 118.959 88.9883 118.62 88.773C114.046 85.9158 111.15 81.143 110.703 75.7299C110.187 69.4666 112.759 63.6499 117.651 60.0017C119.933 58.3014 122.727 57.1822 125.714 56.7733C126.575 56.6549 128.684 56.6118 129.583 56.6925C133.022 56.9939 136.424 58.4628 139.195 60.8412C139.89 61.433 141.165 62.7675 141.676 63.424C143.818 66.1843 145.078 69.3213 145.352 72.5714C145.422 73.4215 145.465 82.2945 145.417 86.4539Z" fill="#DBB509"/>
<path d="M36.1859 63.4991C34.3399 62.5736 32.6445 62.1754 30.5886 62.1808C28.5435 62.1862 27.0473 62.5359 25.1475 63.4614C23.0432 64.4838 21.3533 65.9581 20.1208 67.8414C19.6472 68.5624 18.996 69.9023 18.7323 70.6986C18.4739 71.4789 18.2694 72.2914 18.3178 72.3667C18.3555 72.4259 42.9725 72.4366 43.0101 72.3774C43.0855 72.2483 42.5688 70.5749 42.2029 69.7516C40.9704 66.9966 38.9199 64.8658 36.1859 63.4991Z" fill="#DBB509"/>
</svg>
