<?xml version="1.0" standalone="no"?>
<!DOCTYPE svg PUBLIC "-//W3C//DTD SVG 20010904//EN"
 "http://www.w3.org/TR/2001/REC-SVG-20010904/DTD/svg10.dtd">
<svg version="1.0" xmlns="http://www.w3.org/2000/svg"
 width="534.000000pt" height="94.000000pt" viewBox="0 0 534.000000 94.000000"
 preserveAspectRatio="xMidYMid meet">

<g transform="translate(0.000000,94.000000) scale(0.100000,-0.100000)"
fill="#000000" stroke="none">
<path d="M4695 885 c-30 -30 -32 -64 -4 -99 17 -21 29 -26 65 -26 55 0 84 25
84 74 0 69 -94 102 -145 51z"/>
<path d="M514 676 l-111 -143 39 -51 40 -51 101 127 c55 70 125 157 154 195
l54 67 -83 -1 -83 0 -111 -143z"/>
<path d="M1958 738 l-3 -83 -38 0 -37 0 0 -57 0 -58 40 0 40 0 0 -170 0 -170
70 0 70 0 2 168 3 167 43 3 42 3 0 54 0 54 -41 3 -41 3 -1 82 -2 83 -72 0 -72
0 -3 -82z"/>
<path d="M4380 734 l0 -86 -40 4 -40 4 0 -58 0 -58 40 0 40 0 0 -170 0 -170
70 0 70 0 2 168 3 167 43 3 42 3 0 55 c0 57 2 55 -60 58 -24 1 -25 3 -28 84
l-3 82 -69 0 -70 0 0 -86z"/>
<path d="M993 660 c-125 -26 -193 -108 -193 -236 0 -70 28 -132 79 -176 48
-41 104 -58 188 -58 100 0 169 30 220 96 l24 31 -68 17 c-60 15 -67 16 -75 2
-14 -25 -63 -46 -107 -46 -47 0 -96 38 -107 83 l-6 27 181 0 181 0 0 38 c0 90
-49 170 -125 203 -50 22 -137 30 -192 19z m121 -112 c14 -13 27 -34 28 -48 3
-25 2 -25 -86 -28 -49 -2 -93 1 -97 5 -12 12 19 69 44 81 37 18 84 14 111 -10z"/>
<path d="M2419 656 c-78 -17 -132 -54 -159 -111 -61 -126 -21 -267 93 -328 35
-18 58 -22 142 -22 84 0 107 4 141 22 40 21 110 91 101 100 -3 2 -31 10 -64
18 -53 13 -60 12 -78 -4 -72 -66 -176 -51 -203 28 -6 16 -8 32 -5 35 4 3 85 6
181 6 l175 0 -6 65 c-5 50 -13 76 -36 109 -51 73 -168 108 -282 82z m135 -117
c14 -17 26 -39 26 -50 0 -17 -8 -19 -95 -19 -90 0 -95 1 -95 21 0 11 13 34 29
50 42 42 99 41 135 -2z"/>
<path d="M3037 649 c-21 -11 -41 -27 -44 -34 -8 -24 -23 -17 -23 10 0 24 -2
25 -70 25 l-70 0 0 -225 0 -225 70 0 70 0 0 129 c0 117 2 131 23 162 19 28 29
34 58 33 18 0 41 -4 49 -7 12 -6 22 6 43 48 15 30 27 60 27 66 0 11 -61 39
-82 39 -7 -1 -30 -10 -51 -21z"/>
<path d="M3465 655 c-22 -8 -50 -26 -62 -40 l-23 -26 0 30 0 31 -75 0 -75 0 0
-225 0 -225 75 0 75 0 0 158 c1 172 4 184 58 203 31 11 68 0 84 -25 4 -6 8
-84 8 -173 l0 -163 81 0 81 0 -4 183 c-3 157 -6 186 -22 213 -37 61 -125 87
-201 59z"/>
<path d="M3915 656 c-59 -16 -105 -33 -105 -40 0 -3 10 -26 22 -50 l21 -45 41
17 c23 9 66 16 97 17 70 0 99 -21 99 -73 0 -32 -1 -34 -27 -27 -16 3 -60 9
-100 12 -61 4 -79 2 -117 -16 -56 -27 -81 -74 -73 -138 8 -76 69 -123 159
-123 54 0 138 30 138 50 0 5 5 10 10 10 6 0 10 -11 10 -25 0 -24 2 -25 71 -25
l70 0 -3 189 c-3 212 -4 213 -82 253 -49 25 -163 32 -231 14z m163 -275 c17
-10 7 -54 -18 -76 -27 -25 -85 -30 -115 -11 -27 18 -34 63 -13 84 14 14 126
16 146 3z"/>
<path d="M5127 660 c-26 -5 -68 -20 -92 -34 -180 -106 -141 -369 63 -427 56
-16 183 -7 216 15 24 15 26 23 26 82 l0 65 -26 -20 c-131 -103 -303 23 -216
157 42 65 150 69 220 8 l22 -19 0 70 0 71 -38 15 c-51 21 -117 27 -175 17z"/>
<path d="M1320 654 c0 -1 40 -52 90 -114 55 -70 87 -118 82 -124 -5 -6 -45
-57 -90 -114 l-82 -102 83 0 82 1 45 59 c25 32 48 58 51 57 4 -1 28 -28 53
-59 l47 -58 80 0 81 0 -30 38 c-17 20 -55 69 -86 107 -31 39 -56 75 -56 80 0
6 38 59 85 117 47 59 85 109 85 110 0 2 -37 1 -82 0 l-83 -4 -45 -58 c-25 -33
-47 -59 -50 -59 -3 0 -26 27 -51 60 l-45 61 -82 1 c-45 1 -82 1 -82 1z"/>
<path d="M172 608 c19 -24 58 -73 87 -110 l54 -67 39 49 c43 54 44 52 -15 123
l-39 47 -80 0 -79 0 33 -42z"/>
<path d="M4680 425 l0 -225 75 0 75 0 0 225 0 225 -75 0 -75 0 0 -225z"/>
<path d="M166 235 c-80 -102 -146 -188 -146 -190 0 -3 35 -5 78 -5 l77 1 60
76 c33 43 82 105 109 140 l48 63 -40 50 -40 50 -146 -185z"/>
<path d="M442 370 l-41 -52 47 -59 47 -59 78 0 c42 0 77 2 77 5 0 4 -136 180
-165 213 -1 2 -21 -20 -43 -48z"/>
</g>
</svg>
