<?xml version="1.0" standalone="no"?>
<!DOCTYPE svg PUBLIC "-//W3C//DTD SVG 20010904//EN"
 "http://www.w3.org/TR/2001/REC-SVG-20010904/DTD/svg10.dtd">
<svg version="1.0" xmlns="http://www.w3.org/2000/svg"
 width="813.000000pt" height="171.000000pt" viewBox="0 0 813.000000 171.000000"
 preserveAspectRatio="xMidYMid meet">

<g transform="translate(0.000000,171.000000) scale(0.100000,-0.100000)"
fill="#000000" stroke="none">
<path d="M795 1138 c-48 -90 -134 -246 -191 -348 -57 -103 -106 -194 -110
-203 -6 -16 22 -17 396 -17 l402 0 -46 83 c-25 45 -114 209 -198 364 -84 155
-156 282 -159 283 -3 0 -45 -73 -94 -162z"/>
<path d="M5995 1226 c-128 -66 -153 -230 -51 -332 53 -54 110 -71 184 -56 56
12 112 45 112 66 0 7 -9 21 -20 31 -20 18 -22 18 -64 -3 -54 -27 -82 -28 -124
-2 -57 35 -76 109 -46 173 31 66 98 84 169 46 l39 -21 23 28 c13 16 23 32 23
36 0 19 -76 51 -133 55 -52 4 -70 1 -112 -21z"/>
<path d="M1840 1036 l0 -206 40 0 40 0 0 59 0 58 63 5 c76 6 121 28 147 71 41
66 13 163 -54 196 -16 7 -75 16 -132 19 l-104 5 0 -207z m205 104 c20 -17 19
-69 -2 -92 -12 -13 -30 -18 -70 -18 l-53 0 0 58 c0 32 3 62 8 66 11 12 99 1
117 -14z"/>
<path d="M2228 1234 c-5 -4 -8 -97 -8 -206 l0 -199 43 3 42 3 3 63 3 62 34 0
c31 0 38 -6 76 -65 l42 -65 48 0 c27 0 49 2 49 5 0 2 -21 34 -47 71 -44 63
-46 67 -28 80 10 8 21 14 25 14 15 0 40 62 40 100 0 54 -22 96 -62 116 -35 18
-247 33 -260 18z m218 -99 c18 -19 23 -31 19 -48 -11 -35 -35 -47 -97 -47
l-58 0 0 60 0 60 55 0 c46 0 60 -4 81 -25z"/>
<path d="M2735 1222 c-75 -36 -115 -103 -115 -191 0 -65 13 -98 58 -144 132
-136 362 -39 362 153 0 54 -45 137 -91 167 -53 35 -156 42 -214 15z m171 -95
c97 -89 15 -254 -107 -218 -59 18 -89 61 -89 128 0 49 4 59 34 89 29 29 41 34
80 34 38 0 52 -6 82 -33z"/>
<path d="M3090 1201 l0 -40 58 -3 57 -3 5 -160 5 -160 40 0 40 0 3 163 2 162
61 0 60 0 -3 38 -3 37 -162 3 -163 2 0 -39z"/>
<path d="M3504 1227 c-2 -7 -3 -98 -2 -202 l3 -190 150 0 150 0 0 35 0 35
-107 3 -108 3 0 44 0 45 86 0 85 0 -3 33 -3 32 -82 3 -83 3 0 44 0 45 105 0
105 0 0 40 0 40 -145 0 c-109 0 -147 -3 -151 -13z"/>
<path d="M3990 1224 c-77 -33 -120 -101 -120 -190 0 -110 70 -194 174 -209 50
-7 129 15 162 46 l24 23 -26 27 -27 28 -29 -22 c-20 -15 -44 -22 -75 -22 -39
0 -49 5 -80 39 -34 37 -35 41 -31 99 4 52 9 64 36 88 40 35 98 39 147 9 l32
-20 29 31 c29 30 29 31 9 46 -58 44 -158 56 -225 27z"/>
<path d="M4300 1201 l0 -40 58 -3 57 -3 3 -163 3 -163 42 3 42 3 3 163 2 162
61 0 60 0 -3 38 -3 37 -162 3 -163 2 0 -39z"/>
<path d="M4700 1036 l0 -206 40 0 40 0 -2 203 -3 202 -37 3 -38 3 0 -205z"/>
<path d="M4960 1218 c-59 -30 -101 -92 -108 -157 -8 -83 4 -118 57 -171 79
-79 180 -89 272 -27 95 64 117 201 48 297 -57 78 -177 104 -269 58z m158 -72
c88 -48 79 -193 -15 -233 -105 -43 -203 80 -148 187 28 53 109 77 163 46z"/>
<path d="M5335 1228 c-3 -8 -4 -99 -3 -203 l3 -190 40 0 40 0 5 125 5 125 95
-128 c93 -125 96 -128 130 -125 l35 3 0 200 0 200 -40 0 -40 0 -2 -115 c-1
-63 -2 -119 -3 -123 0 -5 -42 47 -93 115 -87 115 -95 123 -130 126 -24 2 -39
-1 -42 -10z"/>
<path d="M6320 1040 l0 -200 40 0 40 0 0 200 0 200 -40 0 -40 0 0 -200z"/>
<path d="M6485 1218 c4 -13 39 -103 78 -201 l70 -178 40 3 41 3 77 195 77 195
-40 3 c-22 2 -44 0 -48 -5 -5 -6 -72 -180 -95 -250 -10 -29 -22 -6 -66 120
l-46 132 -47 3 c-46 3 -47 2 -41 -20z"/>
<path d="M6940 1040 l0 -200 45 0 45 0 0 200 0 200 -45 0 -45 0 0 -200z"/>
<path d="M7110 1040 l0 -200 146 0 145 0 -3 38 -3 37 -97 3 -98 3 0 159 0 160
-45 0 -45 0 0 -200z"/>
<path d="M7470 1040 l0 -200 149 0 149 0 4 35 4 35 -108 0 -108 0 0 45 0 45
80 0 80 0 0 40 0 40 -80 0 -80 0 0 45 0 45 105 0 105 0 0 35 0 35 -150 0 -150
0 0 -200z"/>
</g>
</svg>
