<svg width="256" height="256" viewBox="-3 0 76 79" fill="none" xmlns="http://www.w3.org/2000/svg">
<circle cx="23.5" cy="54.5" r="21.2457" fill="#E44BDC" stroke="#111111" stroke-width="3.49143"/>
<circle cx="48.5952" cy="23.4041" r="21.2457" fill="#9C67F6" stroke="#111111" stroke-width="3.49143"/>
<path d="M59.0379 76.7255C65.5457 76.7255 70.8214 71.4498 70.8214 64.9419C70.8214 58.434 65.5457 53.1583 59.0379 53.1583C52.53 53.1583 47.2543 58.434 47.2543 64.9419C47.2543 71.4498 52.53 76.7255 59.0379 76.7255Z" fill="#FEB000" stroke="#111111" stroke-width="3.49143"/>
<path d="M13.8196 26.789C20.207 26.789 25.385 21.6111 25.385 15.2237C25.385 8.83633 20.207 3.65834 13.8196 3.65834C7.43227 3.65834 2.25429 8.83633 2.25429 15.2237C2.25429 21.6111 7.43227 26.789 13.8196 26.789Z" fill="#02E173" stroke="#111111" stroke-width="3.49143"/>
</svg>

