<?xml version="1.0" encoding="UTF-8"?>
<!DOCTYPE svg PUBLIC "-//W3C//DTD SVG 1.1//EN" "http://www.w3.org/Graphics/SVG/1.1/DTD/svg11.dtd">
<svg xmlns="http://www.w3.org/2000/svg" version="1.1" width="512px" height="512px" style="shape-rendering:geometricPrecision; text-rendering:geometricPrecision; image-rendering:optimizeQuality; fill-rule:evenodd; clip-rule:evenodd" xmlns:xlink="http://www.w3.org/1999/xlink">
<g><path style="opacity:1" fill="#9a65f6" d="M -0.5,-0.5 C 170.167,-0.5 340.833,-0.5 511.5,-0.5C 511.5,170.167 511.5,340.833 511.5,511.5C 340.833,511.5 170.167,511.5 -0.5,511.5C -0.5,340.833 -0.5,170.167 -0.5,-0.5 Z"/></g>
<g><path style="opacity:1" fill="#fbf7fc" d="M 290.5,116.5 C 329.607,113.3 358.774,128.633 378,162.5C 392.969,200.789 385.469,233.956 355.5,262C 336.444,275.848 315.11,281.681 291.5,279.5C 302.838,319.006 292.504,351.506 260.5,377C 217.657,400.742 180.157,394.242 148,357.5C 125.875,321.884 127.542,287.55 153,254.5C 172.88,233.149 197.38,224.149 226.5,227.5C 223.308,215.422 221.808,203.088 222,190.5C 206.286,215.38 184.786,222.213 157.5,211C 133.534,194.864 127.034,173.364 138,146.5C 155.524,121.315 178.024,115.482 205.5,129C 218.869,138.376 226.369,151.21 228,167.5C 240.091,139.714 260.925,122.714 290.5,116.5 Z"/></g>
<g><path style="opacity:1" fill="#fbf7fc" d="M 329.5,298.5 C 369.318,296.155 389.151,314.822 389,354.5C 380.944,382.283 362.444,395.449 333.5,394C 312.878,389.379 299.712,376.879 294,356.5C 290.815,327.856 302.648,308.523 329.5,298.5 Z"/></g>
</svg>
