<svg width="125" height="81" viewBox="0 0 125 81" fill="none" xmlns="http://www.w3.org/2000/svg">
<g clip-path="url(#clip0_3_186)">
<path d="M5.78425 40.48L72.6843 79.11C74.9843 80.44 79.0042 80.27 81.6643 78.74L121.934 55.49C124.594 53.96 124.884 51.63 122.574 50.31L55.6743 11.67C53.3743 10.34 49.3543 10.51 46.6943 12.04L6.42425 35.29C3.76425 36.82 3.47425 39.15 5.78425 40.47V40.48Z" fill="#8CBAFA"/>
<path d="M76.5943 80.59C75.0343 80.59 73.5343 80.27 72.3943 79.61L5.49426 40.98C4.30426 40.29 3.64426 39.31 3.65426 38.22C3.65426 36.95 4.56426 35.7 6.14426 34.78L46.4043 11.54C49.2643 9.89002 53.4643 9.72002 55.9643 11.17L122.864 49.8C124.054 50.49 124.704 51.46 124.714 52.56C124.714 53.83 123.804 55.08 122.224 56L81.9543 79.25C80.4043 80.15 78.4543 80.61 76.5943 80.61V80.59ZM6.07426 39.97L72.9743 78.6C75.1143 79.83 78.8843 79.67 81.3743 78.23L121.644 54.98C122.854 54.28 123.554 53.39 123.554 52.55C123.554 51.71 122.864 51.14 122.294 50.8L55.3843 12.18C53.2443 10.95 49.4843 11.11 46.9843 12.55L6.71426 35.8C5.50426 36.5 4.80426 37.38 4.80426 38.23C4.80426 39.08 5.49426 39.65 6.06426 39.98L6.07426 39.97Z" fill="black"/>
<path d="M5.78425 37.87L72.6843 76.5C74.9843 77.83 79.0042 77.66 81.6643 76.13L121.934 52.88C124.594 51.35 124.884 49.02 122.574 47.7L55.6743 9.07002C53.3743 7.74002 49.3543 7.91002 46.6943 9.44002L6.42425 32.69C3.76425 34.22 3.47425 36.55 5.78425 37.87Z" fill="#8CBAFA"/>
<path d="M76.5943 77.9901C75.0343 77.9901 73.5343 77.6701 72.3943 77.01L5.49426 38.38C4.30426 37.69 3.64426 36.71 3.65426 35.62C3.65426 34.35 4.56426 33.1 6.14426 32.18L46.4043 8.94005C49.2643 7.29005 53.4643 7.12005 55.9643 8.57005L122.864 47.2C124.054 47.89 124.704 48.86 124.714 49.96C124.714 51.23 123.804 52.48 122.224 53.4L81.9543 76.65C80.4043 77.55 78.4543 78.01 76.5943 78.01V77.9901ZM6.07426 37.37L72.9743 76C75.1143 77.23 78.8843 77.0701 81.3743 75.6301L121.644 52.38C122.854 51.68 123.554 50.79 123.554 49.95C123.554 49.11 122.864 48.54 122.294 48.2L55.3843 9.57005C53.2443 8.34005 49.4843 8.50005 46.9843 9.94005L6.71426 33.19C5.50426 33.89 4.80426 34.77 4.80426 35.62C4.80426 36.47 5.49426 37.04 6.06426 37.37H6.07426Z" fill="black"/>
<path d="M5.78425 35.2901L72.6843 73.9201C74.9843 75.2501 79.0042 75.0801 81.6643 73.5501L121.934 50.3001C124.594 48.7701 124.884 46.4401 122.574 45.1201L55.6743 6.49006C53.3743 5.16006 49.3543 5.33006 46.6943 6.86006L6.42425 30.1101C3.76425 31.6401 3.47425 33.9701 5.78425 35.2901Z" fill="#8CBAFA"/>
<path d="M76.5943 75.4001C75.0343 75.4001 73.5343 75.0801 72.3943 74.4201L5.49427 35.7901C4.30427 35.1001 3.65427 34.1201 3.65427 33.0301C3.65427 31.7601 4.56427 30.5101 6.14427 29.5901L46.4043 6.35008C49.2643 4.70008 53.4643 4.53008 55.9643 5.98008L122.864 44.6101C124.054 45.3001 124.714 46.2801 124.714 47.3701C124.714 48.6401 123.804 49.8901 122.224 50.8101L81.9543 74.0601C80.4043 74.9601 78.4543 75.4201 76.5943 75.4201V75.4001ZM6.07427 34.7901L72.9743 73.4201C75.1143 74.6501 78.8843 74.4801 81.3743 73.0501L121.644 49.8001C122.854 49.1001 123.554 48.2101 123.554 47.3701C123.554 46.5301 122.864 45.9501 122.294 45.6201L55.3843 6.99008C53.2443 5.76008 49.4743 5.92008 46.9843 7.36008L6.71427 30.6101C5.50427 31.3101 4.80427 32.2001 4.80427 33.0401C4.80427 33.8801 5.49427 34.4601 6.06427 34.7901H6.07427Z" fill="black"/>
<path d="M76.9443 80.1001C78.6043 80.0501 80.3143 79.6201 81.6643 78.8401L121.934 55.5901C124.014 54.3901 124.264 52.0901 123.704 51.3001C124.264 50.4301 124.264 49.5001 123.704 48.7101C124.514 47.4301 124.154 46.0401 122.564 45.1301L108.604 37.0701H76.9343V80.1101L76.9443 80.1001Z" fill="black"/>
<path d="M5.78425 32.6901L72.6843 71.3201C74.9843 72.6501 79.0042 72.4801 81.6643 70.9501L121.934 47.7001C124.594 46.1701 124.884 43.8401 122.574 42.5201L55.6743 3.88008C53.3743 2.55008 49.3543 2.72008 46.6943 4.25008L6.42425 27.5001C3.76425 29.0301 3.47425 31.3601 5.78425 32.6801V32.6901Z" fill="#8CBAFA"/>
<path d="M53.6243 8.28L13.2743 31.58C11.1043 32.83 10.5143 34.61 11.6143 35.95L66.1743 67.45C68.5143 68.59 72.2843 68.39 74.8243 66.93L115.094 43.68C117.414 42.34 117.924 40.4 116.494 39.05L62.2943 7.75C59.9543 6.6 56.1743 6.81 53.6343 8.28H53.6243Z" fill="white"/>
<path d="M76.5943 72.8001C75.0343 72.8001 73.5343 72.4801 72.3943 71.8201L5.49426 33.1901C4.30426 32.5001 3.64426 31.5201 3.65426 30.4301C3.65426 29.1601 4.56426 27.9101 6.14426 26.9901L46.4043 3.75009C49.2643 2.10009 53.4643 1.94009 55.9643 3.38009L122.864 42.0101C124.054 42.7001 124.704 43.6701 124.714 44.7701C124.714 46.0401 123.804 47.2901 122.224 48.2101L81.9543 71.4601C80.4043 72.3601 78.4543 72.8201 76.5943 72.8201V72.8001ZM6.07426 32.1801L72.9743 70.8101C75.1143 72.0401 78.8843 71.8801 81.3743 70.4401L121.644 47.1901C122.854 46.4901 123.554 45.6001 123.554 44.7601C123.554 43.9201 122.864 43.3501 122.294 43.0101L55.3843 4.39009C53.2443 3.16009 49.4743 3.32009 46.9843 4.76009L6.71426 28.0101C5.50426 28.7101 4.80426 29.5901 4.80426 30.4401C4.80426 31.2901 5.49426 31.8601 6.06426 32.1901L6.07426 32.1801Z" fill="black"/>
<path d="M109.111 39.6838L68.3937 63.2201L68.9743 64.2244L109.691 40.6881L109.111 39.6838Z" fill="black"/>
<path d="M70.1228 11.8871L20.2461 40.7183L20.8267 41.7225L70.7033 12.8914L70.1228 11.8871Z" fill="black"/>
<path d="M60.0981 11.3848L19.3812 34.9211L19.9617 35.9254L60.6786 12.3891L60.0981 11.3848Z" fill="black"/>
<path d="M49.7843 10.94C51.0766 10.94 52.1243 10.3356 52.1243 9.58999C52.1243 8.84441 51.0766 8.23999 49.7843 8.23999C48.4919 8.23999 47.4443 8.84441 47.4443 9.58999C47.4443 10.3356 48.4919 10.94 49.7843 10.94Z" fill="#8CBAFA"/>
<path d="M49.7843 11.5201C49.0843 11.5201 48.3843 11.3601 47.8343 11.0501C47.2143 10.6901 46.8543 10.1601 46.8543 9.59009C46.8543 9.02009 47.2143 8.49009 47.8343 8.13009C48.9243 7.50009 50.6343 7.50009 51.7343 8.13009C52.3543 8.49009 52.7143 9.02009 52.7143 9.59009C52.7143 10.1601 52.3543 10.6901 51.7343 11.0501C51.1843 11.3601 50.4843 11.5201 49.7843 11.5201ZM49.7843 8.81009C49.2843 8.81009 48.7843 8.92009 48.4143 9.13009C48.1743 9.27009 48.0143 9.44009 48.0143 9.58009C48.0143 9.72009 48.1643 9.89009 48.4143 10.0301C49.1543 10.4601 50.4043 10.4601 51.1443 10.0301C51.3843 9.89009 51.5443 9.72009 51.5443 9.58009C51.5443 9.44009 51.3943 9.27009 51.1443 9.13009C50.7743 8.92009 50.2743 8.81009 49.7743 8.81009H49.7843Z" fill="black"/>
<path d="M41.3043 12.57C40.3843 13.1 40.3843 13.96 41.3043 14.48C42.2243 15.01 43.7043 15.01 44.6243 14.48C45.5443 13.95 45.5443 13.09 44.6243 12.57C43.7043 12.05 42.2243 12.04 41.3043 12.57Z" fill="#8CBAFA"/>
<path d="M42.9643 15.46C42.2643 15.46 41.5643 15.3 41.0143 14.99C40.3943 14.63 40.0343 14.1 40.0343 13.53C40.0343 12.96 40.3943 12.43 41.0143 12.07C42.1043 11.44 43.8143 11.44 44.9143 12.07C45.5343 12.43 45.8943 12.96 45.8943 13.53C45.8943 14.1 45.5343 14.63 44.9143 14.99C44.3643 15.31 43.6643 15.46 42.9643 15.46ZM42.9643 12.75C42.4643 12.75 41.9643 12.86 41.5943 13.07C41.3543 13.21 41.1943 13.38 41.1943 13.52C41.1943 13.66 41.3443 13.83 41.5943 13.97C42.3343 14.4 43.5843 14.4 44.3243 13.97C44.5643 13.83 44.7243 13.66 44.7243 13.52C44.7243 13.38 44.5743 13.21 44.3243 13.07C43.9543 12.86 43.4543 12.75 42.9543 12.75H42.9643Z" fill="black"/>
<path d="M34.4843 16.51C33.5643 17.04 33.5643 17.9 34.4843 18.42C35.4043 18.94 36.8843 18.95 37.8043 18.42C38.7243 17.89 38.7243 17.03 37.8043 16.51C36.8843 15.98 35.4043 15.98 34.4843 16.51Z" fill="#8CBAFA"/>
<path d="M36.1343 19.4C35.4343 19.4 34.7343 19.24 34.1843 18.93C33.5643 18.57 33.2043 18.04 33.2043 17.47C33.2043 16.9 33.5643 16.37 34.1843 16.01C35.2743 15.38 36.9843 15.38 38.0843 16.01C38.7043 16.37 39.0643 16.9 39.0643 17.47C39.0643 18.04 38.7043 18.57 38.0843 18.93C37.5343 19.25 36.8343 19.4 36.1343 19.4ZM36.1343 16.69C35.6343 16.69 35.1343 16.8 34.7643 17.01C34.5243 17.15 34.3643 17.32 34.3643 17.46C34.3643 17.6 34.5143 17.77 34.7643 17.91C35.5043 18.34 36.7543 18.34 37.4943 17.91C37.7343 17.77 37.8943 17.6 37.8943 17.46C37.8943 17.32 37.7443 17.15 37.4943 17.01C37.1243 16.8 36.6243 16.69 36.1243 16.69H36.1343Z" fill="black"/>
<path d="M27.6543 20.45C26.7343 20.98 26.7343 21.84 27.6543 22.36C28.5743 22.89 30.0543 22.89 30.9743 22.36C31.8943 21.83 31.8943 20.97 30.9743 20.45C30.0543 19.92 28.5743 19.92 27.6543 20.45Z" fill="#8CBAFA"/>
<path d="M29.3143 23.34C28.6143 23.34 27.9143 23.18 27.3643 22.87C26.7443 22.51 26.3843 21.98 26.3843 21.41C26.3843 20.84 26.7443 20.31 27.3643 19.95C28.4543 19.32 30.1643 19.32 31.2643 19.95C31.8843 20.31 32.2443 20.84 32.2443 21.41C32.2443 21.98 31.8843 22.51 31.2643 22.87C30.7143 23.18 30.0143 23.34 29.3143 23.34ZM27.9443 20.95C27.7043 21.09 27.5443 21.26 27.5443 21.4C27.5443 21.54 27.6943 21.71 27.9443 21.85C28.6843 22.28 29.9343 22.28 30.6743 21.85C30.9143 21.71 31.0743 21.54 31.0743 21.4C31.0743 21.26 30.9243 21.09 30.6743 20.95C29.9343 20.52 28.6843 20.52 27.9443 20.95Z" fill="black"/>
<path d="M20.8343 24.3901C19.9143 24.9201 19.9143 25.7801 20.8343 26.3001C21.7543 26.8301 23.2343 26.8301 24.1543 26.3001C25.0743 25.7701 25.0743 24.9101 24.1543 24.3901C23.2343 23.8601 21.7543 23.8601 20.8343 24.3901Z" fill="#8CBAFA"/>
<path d="M22.4943 27.28C21.7943 27.28 21.0943 27.12 20.5443 26.81C19.9243 26.45 19.5643 25.92 19.5643 25.35C19.5643 24.78 19.9243 24.25 20.5443 23.89C21.6343 23.26 23.3443 23.26 24.4443 23.89C25.0643 24.25 25.4243 24.78 25.4243 25.35C25.4243 25.92 25.0643 26.45 24.4443 26.81C23.8943 27.13 23.1943 27.28 22.4943 27.28ZM22.4943 24.57C21.9943 24.57 21.4943 24.68 21.1243 24.89C20.8843 25.03 20.7243 25.2 20.7243 25.34C20.7243 25.48 20.8743 25.65 21.1243 25.79C21.8643 26.22 23.1143 26.22 23.8543 25.79C24.0943 25.65 24.2543 25.48 24.2543 25.34C24.2543 25.2 24.1043 25.03 23.8543 24.89C23.4843 24.68 22.9843 24.57 22.4843 24.57H22.4943Z" fill="black"/>
<path d="M14.0043 28.33C13.0843 28.86 13.0843 29.72 14.0043 30.24C14.9243 30.77 16.4043 30.77 17.3243 30.24C18.2443 29.71 18.2443 28.85 17.3243 28.33C16.4043 27.8 14.9243 27.8 14.0043 28.33Z" fill="#8CBAFA"/>
<path d="M15.6643 31.22C14.9643 31.22 14.2643 31.06 13.7143 30.75C13.0943 30.39 12.7343 29.86 12.7343 29.29C12.7343 28.72 13.0943 28.19 13.7143 27.83C14.8043 27.2 16.5143 27.2 17.6143 27.83C18.2343 28.19 18.5943 28.72 18.5943 29.29C18.5943 29.86 18.2343 30.39 17.6143 30.75C17.0643 31.07 16.3643 31.22 15.6643 31.22ZM15.6643 28.51C15.1643 28.51 14.6643 28.62 14.2943 28.83C14.0543 28.97 13.8943 29.14 13.8943 29.28C13.8943 29.42 14.0443 29.59 14.2943 29.73C15.0343 30.16 16.2843 30.16 17.0243 29.73C17.2643 29.59 17.4243 29.42 17.4243 29.28C17.4243 29.14 17.2743 28.97 17.0243 28.83C16.6543 28.62 16.1543 28.51 15.6543 28.51H15.6643Z" fill="black"/>
<path d="M23.1943 26.36L21.6843 26.18C21.6843 26.18 22.1143 22.35 20.1543 19.88C19.2043 18.68 17.8243 17.97 16.0543 17.77C14.0443 17.54 12.2343 18.21 10.9543 19.66C9.52426 21.28 8.97426 23.66 9.51426 25.88L8.03426 26.24C7.37426 23.5 8.03426 20.66 9.81426 18.65C11.4343 16.82 13.7143 15.96 16.2343 16.25C18.4243 16.5 20.1543 17.4 21.3643 18.94C23.7143 21.92 23.2343 26.18 23.2143 26.36H23.1943Z" fill="black"/>
<path d="M30.0243 22.49L28.5143 22.31C28.5143 22.31 28.9443 18.48 26.9843 16.01C26.0343 14.81 24.6543 14.1 22.8843 13.9C20.8743 13.67 19.0643 14.34 17.7843 15.79C16.3543 17.41 15.8043 19.79 16.3443 22.01L14.8643 22.37C14.2043 19.63 14.8643 16.8 16.6443 14.78C18.2643 12.94 20.5443 12.09 23.0643 12.38C25.2543 12.63 26.9843 13.53 28.1943 15.07C30.5443 18.05 30.0643 22.31 30.0443 22.49H30.0243Z" fill="black"/>
<path d="M36.8442 18.47L35.3342 18.29C35.3342 18.29 35.7643 14.46 33.8043 11.99C32.8543 10.79 31.4742 10.08 29.7042 9.88002C27.6942 9.65002 25.8843 10.32 24.6043 11.77C23.1743 13.39 22.6242 15.77 23.1642 17.99L21.6843 18.35C21.0243 15.61 21.6842 12.78 23.4642 10.76C25.0842 8.93002 27.3642 8.07002 29.8842 8.36002C32.0742 8.61002 33.8042 9.51002 35.0142 11.05C37.3643 14.03 36.8842 18.29 36.8642 18.47H36.8442Z" fill="black"/>
<path d="M43.6843 14.6501L42.1743 14.4701C42.1743 14.4701 42.5943 10.6401 40.6443 8.17008C39.6943 6.97008 38.3143 6.26008 36.5443 6.06008C34.5343 5.83008 32.7243 6.50008 31.4443 7.95008C30.0143 9.57008 29.4643 11.9501 30.0043 14.1701L28.5243 14.5301C27.8643 11.7901 28.5243 8.96008 30.3043 6.94008C31.9243 5.11008 34.2043 4.25008 36.7243 4.54008C38.9143 4.79008 40.6443 5.69008 41.8543 7.23008C44.2043 10.2101 43.7243 14.4701 43.7043 14.6501H43.6843Z" fill="black"/>
<path d="M50.4943 10.57L48.9843 10.39C48.9843 10.39 49.4143 6.56 47.4543 4.09C46.5043 2.89 45.1243 2.18 43.3543 1.98C41.3443 1.75 39.5343 2.42 38.2543 3.87C36.8243 5.49 36.2743 7.87 36.8143 10.09L35.3343 10.45C34.6743 7.71 35.3343 4.87 37.1143 2.86C38.7343 1.03 41.0143 0.169999 43.5343 0.459999C45.7243 0.709999 47.4543 1.61 48.6643 3.15C51.0143 6.13 50.5343 10.39 50.5143 10.57H50.4943Z" fill="black"/>
<path d="M3.62428 34.4801C0.914276 31.6501 0.234276 27.6601 1.88428 24.3401C3.32428 21.4401 6.22428 19.8601 9.44428 20.2301C11.6343 20.4801 13.3643 21.3801 14.5743 22.9201C16.9243 25.9001 16.4443 30.1601 16.4243 30.3401L14.9143 30.1601C14.9143 30.1601 15.3443 26.3301 13.3843 23.8601C12.4343 22.6601 11.0543 21.9501 9.28428 21.7501C6.67428 21.4501 4.42428 22.6801 3.25428 25.0301C1.89428 27.7801 2.47428 31.0801 4.73428 33.4501L3.63428 34.5001L3.62428 34.4801Z" fill="black"/>
<path d="M9.38426 21.75L8.52426 21.49C8.52426 21.49 8.77426 20.69 9.18426 20.05L9.93426 20.5301C9.59426 21.0601 9.38426 21.74 9.38426 21.74V21.75Z" fill="#8CBAFA"/>
<path d="M16.3143 17.7601L15.4543 17.5001C15.4543 17.5001 15.7043 16.7001 16.1143 16.0601L16.8643 16.5401C16.5243 17.0701 16.3143 17.7501 16.3143 17.7501V17.7601Z" fill="#8CBAFA"/>
<path d="M23.0843 13.8801L22.2243 13.6201C22.2243 13.6201 22.4743 12.8201 22.8843 12.1801L23.6343 12.6601C23.2943 13.1901 23.0843 13.8701 23.0843 13.8701V13.8801Z" fill="#8CBAFA"/>
<path d="M29.9743 9.86003L29.1143 9.60003C29.1143 9.60003 29.3643 8.80003 29.7743 8.16003L30.5243 8.64003C30.1843 9.17003 29.9743 9.85003 29.9743 9.85003V9.86003Z" fill="#8CBAFA"/>
<path d="M36.5643 6.22002L35.7043 5.96002C35.7043 5.96002 35.9543 5.16002 36.3643 4.52002L37.1143 5.00002C36.7743 5.53002 36.5643 6.21002 36.5643 6.21002V6.22002Z" fill="#8CBAFA"/>
<path d="M74.8343 45.62L61.5343 53.3L58.7343 51.68L58.6843 46.13C58.6543 44.48 58.5743 43.36 58.4443 42.79C58.3143 42.22 58.1143 41.74 57.8243 41.35C57.5343 40.96 57.1343 40.62 56.6243 40.33C55.8643 39.89 55.0843 39.68 54.2843 39.71C53.4943 39.74 52.7443 39.95 52.0343 40.36C51.2943 40.79 50.7543 41.3 50.3943 41.89C50.0343 42.49 49.7943 43.18 49.6643 43.98L44.8843 43.75C45.0243 42.75 45.2343 41.97 45.5243 41.43C45.8143 40.88 46.2243 40.35 46.7843 39.83C47.3443 39.31 48.0643 38.78 48.9643 38.26C50.1543 37.57 51.4243 37.09 52.7643 36.82C54.1043 36.54 55.4243 36.49 56.7043 36.65C57.9843 36.81 59.1343 37.18 60.1443 37.76C61.0243 38.27 61.6843 38.83 62.1443 39.45C62.6043 40.07 62.9143 40.8 63.0743 41.64C63.2343 42.48 63.2443 43.8 63.1043 45.6L62.9643 48.34L63.1443 48.45L71.4343 43.66L74.8143 45.61L74.8343 45.62Z" fill="#8CBAFA"/>
<path d="M61.5243 53.9801L58.1443 52.0301L58.0843 46.1501C58.0543 44.5501 57.9743 43.4601 57.8543 42.9301C57.7443 42.4401 57.5743 42.0301 57.3343 41.7101C57.0943 41.3901 56.7543 41.1001 56.3143 40.8401C55.6443 40.4501 54.9843 40.2901 54.2843 40.3001C53.5943 40.3201 52.9243 40.5201 52.3143 40.8701C51.6643 41.2401 51.1843 41.6901 50.8843 42.2001C50.5643 42.7301 50.3443 43.3701 50.2343 44.0801L50.1543 44.5901L44.2243 44.3001L44.3143 43.6701C44.4643 42.5901 44.6943 41.7701 45.0143 41.1601C45.3243 40.5601 45.7843 39.9701 46.3843 39.4001C46.9643 38.8501 47.7343 38.2901 48.6743 37.7501C49.9143 37.0301 51.2543 36.5301 52.6543 36.2401C54.0543 35.9501 55.4443 35.8901 56.7843 36.0601C58.1343 36.2301 59.3643 36.6301 60.4343 37.2501C61.3743 37.7901 62.1143 38.4201 62.6143 39.1001C63.1243 39.7901 63.4743 40.6101 63.6443 41.5301C63.8143 42.4301 63.8343 43.7701 63.6843 45.6501L63.5843 47.5201L71.4343 42.9901L75.9843 45.6201L61.5143 53.9701L61.5243 53.9801ZM59.3043 51.3501L61.5243 52.6301L73.6643 45.6201L71.4443 44.3401L63.1543 49.1301L62.3743 48.6801L62.5343 45.5801C62.6743 43.8201 62.6643 42.5401 62.5143 41.7601C62.3743 41.0101 62.0943 40.3501 61.6843 39.8101C61.2743 39.2601 60.6543 38.7401 59.8543 38.2801C58.9243 37.7401 57.8343 37.3901 56.6343 37.2401C55.4243 37.0901 54.1543 37.1401 52.8843 37.4101C51.6043 37.6701 50.3843 38.1401 49.2543 38.7901C48.3943 39.2901 47.6943 39.7901 47.1843 40.2801C46.6843 40.7601 46.2943 41.2501 46.0443 41.7301C45.8543 42.1001 45.6943 42.6001 45.5743 43.2301L49.1943 43.4101C49.3443 42.7501 49.5843 42.1501 49.8943 41.6301C50.3043 40.9501 50.9243 40.3701 51.7443 39.8901C52.5243 39.4401 53.3743 39.1901 54.2643 39.1601C55.1543 39.1301 56.0543 39.3601 56.9143 39.8601C57.4943 40.1901 57.9543 40.5901 58.2843 41.0401C58.6143 41.4901 58.8643 42.0501 59.0043 42.7001C59.1343 43.3201 59.2243 44.4501 59.2543 46.1501L59.3043 51.3701V51.3501Z" fill="black"/>
<path d="M75.3043 28.17C76.4943 28.86 77.1443 29.65 77.2543 30.54C77.3643 31.43 76.9243 32.35 75.9443 33.28L76.0243 33.33C77.7543 32.55 79.3843 32.15 80.9143 32.12C82.4443 32.09 83.8443 32.44 85.0943 33.17C86.9243 34.23 87.6843 35.43 87.3743 36.79C87.0643 38.15 85.6843 39.53 83.2143 40.96C81.1443 42.15 78.9743 43.01 76.6943 43.54L73.2743 41.56C74.3843 41.35 75.5043 41.06 76.6143 40.68C77.7343 40.3 78.7243 39.87 79.5943 39.36C80.9243 38.59 81.6743 37.9 81.8543 37.27C82.0343 36.64 81.6243 36.04 80.6343 35.47C79.7443 34.95 78.7443 34.8 77.6443 35C76.5443 35.2 75.1943 35.77 73.5943 36.69L72.1543 37.52L69.0743 35.74L70.5443 34.89C72.0243 34.04 72.9043 33.3 73.2043 32.69C73.5043 32.07 73.1743 31.5 72.2443 30.95C70.8043 30.12 69.1843 30.22 67.3743 31.27C66.7543 31.63 66.2143 32.06 65.7843 32.55C65.3543 33.04 64.9843 33.67 64.7143 34.42L60.0843 33.89C60.5743 32.17 62.0143 30.61 64.4143 29.22C66.3843 28.08 68.3343 27.42 70.2743 27.22C72.2143 27.02 73.8943 27.33 75.3143 28.16L75.3043 28.17Z" fill="#8CBAFA"/>
<path d="M76.6043 44.1601L71.6243 41.2901L73.1643 41.0001C74.2443 40.8001 75.3443 40.5101 76.4343 40.1401C77.5143 39.7801 78.4843 39.3501 79.3043 38.8701C80.8643 37.9701 81.2243 37.3901 81.3043 37.1201C81.4243 36.7101 80.8543 36.2701 80.3443 35.9801C79.5643 35.5301 78.7143 35.4001 77.7443 35.5801C76.7143 35.7701 75.4143 36.3201 73.8843 37.2001L72.1443 38.2001L67.8943 35.7501L70.2343 34.4001C72.0243 33.3701 72.5143 32.7401 72.6543 32.4501C72.7143 32.3301 72.8643 32.0101 71.9243 31.4701C70.6643 30.7501 69.2643 30.8501 67.6443 31.7901C67.0743 32.1201 66.5843 32.5101 66.1943 32.9501C65.8043 33.3901 65.4843 33.9501 65.2343 34.6301L65.0743 35.0601L59.3043 34.4101L59.4943 33.7501C60.0243 31.8801 61.5743 30.2001 64.0943 28.7401C66.1243 27.5701 68.1743 26.8701 70.1943 26.6601C72.2443 26.4501 74.0643 26.7901 75.5843 27.6701C76.9343 28.4501 77.6843 29.3901 77.8243 30.4801C77.8943 31.0301 77.7943 31.5801 77.5443 32.1301C78.7043 31.7601 79.8243 31.5701 80.8943 31.5501C82.5143 31.5101 84.0343 31.9001 85.3843 32.6701C87.4543 33.8701 88.3143 35.3001 87.9443 36.9201C87.5943 38.4601 86.1443 39.9401 83.5043 41.4601C81.3943 42.6801 79.1543 43.5601 76.8243 44.1001L76.6043 44.1501V44.1601ZM74.8643 41.8101L76.7943 42.9201C78.9343 42.4001 80.9943 41.5801 82.9343 40.4601C85.2443 39.1301 86.5443 37.8501 86.8143 36.6701C86.9043 36.2701 87.1843 35.0601 84.8043 33.6801C83.6443 33.0101 82.3443 32.6901 80.9243 32.7101C79.4843 32.7401 77.9143 33.1201 76.2643 33.8701L75.9943 33.9901L74.9843 33.4001L75.5543 32.8601C76.3943 32.0701 76.7743 31.3101 76.6943 30.6101C76.6043 29.9101 76.0443 29.2501 75.0243 28.6701C73.7143 27.9101 72.1343 27.6301 70.3343 27.8101C68.4843 28.0001 66.5943 28.6501 64.7043 29.7401C62.7643 30.8601 61.4843 32.0901 60.8843 33.4101L64.3443 33.8001C64.6143 33.1701 64.9543 32.6201 65.3543 32.1701C65.8343 31.6301 66.4143 31.1601 67.0943 30.7701C69.0843 29.6201 70.9143 29.5201 72.5443 30.4501C74.1743 31.3901 73.9943 32.4201 73.7443 32.9401C73.3943 33.6801 72.4743 34.4601 70.8543 35.3901L70.2543 35.7301L72.1743 36.8401L73.3243 36.1701C74.9743 35.2201 76.3943 34.6301 77.5543 34.4101C78.7843 34.1801 79.9343 34.3601 80.9443 34.9401C82.5143 35.8501 82.6143 36.7801 82.4343 37.4101C82.2043 38.1901 81.3743 38.9901 79.9043 39.8401C79.0043 40.3601 77.9743 40.8201 76.8143 41.2001C76.1643 41.4201 75.5143 41.6101 74.8743 41.7701L74.8643 41.8101Z" fill="black"/>
</g>
<defs>
<clipPath id="clip0_3_186">
<rect width="123.72" height="80.18" fill="white" transform="translate(0.994263 0.410034)"/>
</clipPath>
</defs>
</svg>
