<svg width="64" height="61" viewBox="0 0 64 61" fill="none" xmlns="http://www.w3.org/2000/svg">
<path d="M32.1562 48.489L31.9008 48.4216L31.7012 48.5946C29.5234 50.4814 26.9598 51.8699 24.1896 52.663C21.4194 53.4561 18.5094 53.6346 15.663 53.1861L15.6591 53.1855C10.0204 52.343 4.12466 48.6798 3.56556 41.3893C2.91169 32.6261 5.45887 26.2435 9.67855 22.0496C13.9069 17.8471 19.8674 15.79 26.1275 15.79C31.2664 15.79 36.0215 18.2607 39.8463 21.9599C43.6711 25.6592 46.5294 30.5546 47.8714 35.3168L47.8812 35.3518L47.896 35.385L53.4905 47.9208L48.892 52.9076L32.1562 48.489Z" fill="#FAA68C" stroke="#0E0D0F"/>
<path d="M23 34C27.9131 38.974 22.9757 42.1861 17.4757 41.6861C11.9757 41.1861 14.6534 26.7217 22.6534 27.2217C30.6534 27.7217 33.7088 29.2372 35.7206 34.3169C36.8164 37.0838 35.5326 46.103 31.0326 49.103" stroke="#0E0D0F"/>
<path d="M63.6424 11.6698C63.6451 12.1661 63.5003 12.6519 63.2265 13.0658C62.9527 13.4797 62.5622 13.803 62.1045 13.9948C61.6468 14.1865 61.1424 14.238 60.6554 14.1428C60.1683 14.0476 59.7205 13.81 59.3687 13.46C59.0168 13.11 58.7768 12.6635 58.679 12.1769C58.5812 11.6904 58.6301 11.1858 58.8194 10.7271C59.0087 10.2683 59.3299 9.8761 59.7424 9.60011C60.1548 9.32413 60.6399 9.1768 61.1361 9.17679C61.7986 9.17678 62.434 9.43901 62.9037 9.90617C63.3733 10.3733 63.6389 11.0074 63.6424 11.6698Z" fill="#0E0D0F"/>
<path d="M63.4567 2.45356C63.4672 2.95306 63.3282 3.44431 63.0575 3.86423C62.7868 4.28416 62.3968 4.6136 61.9375 4.81026C61.4782 5.00692 60.9707 5.06182 60.48 4.96792C59.9892 4.87402 59.5378 4.63561 59.1836 4.28328C58.8293 3.93095 58.5885 3.48079 58.4919 2.99059C58.3954 2.5004 58.4476 1.99253 58.6417 1.5322C58.8359 1.07186 59.1633 0.680064 59.5817 0.407107C60.0002 0.134149 60.4907 -0.00751265 60.9902 0.000307131C61.6389 0.0104617 62.2584 0.27178 62.7184 0.729305C63.1784 1.18683 63.4431 1.80491 63.4567 2.45356Z" fill="#0E0D0F"/>
<path d="M0.636677 56.9959L0.637868 56.9923C1.73582 53.6531 4.07578 50.869 7.16622 49.2118C9.55809 51.1692 12.4463 52.4289 15.5127 52.8487C18.5012 53.3161 21.5557 53.1269 24.4637 52.2944C27.3133 51.4785 29.9553 50.0641 32.2135 48.1464H43.1279C44.6427 48.1464 46.0954 47.5446 47.1665 46.4735C48.2376 45.4024 48.8394 43.9497 48.8394 42.4349V30.593C48.8394 30.0342 48.9496 29.4809 49.1638 28.9648C49.378 28.4488 49.6919 27.98 50.0876 27.5854C50.4833 27.1909 50.9529 26.8783 51.4696 26.6655C51.986 26.4529 52.5393 26.3442 53.0978 26.3456C55.2471 26.359 57.3041 27.2213 58.8204 28.7447C60.3369 30.2682 61.1898 32.3295 61.193 34.4792V42.4349C61.193 47.226 59.2897 51.821 55.9019 55.2089C52.514 58.5967 47.9191 60.5 43.1279 60.5H3.76982C2.71314 60.5 1.75928 60.0709 1.16085 59.4201C0.572353 58.78 0.322723 57.9267 0.636677 56.9959Z" fill="#FAA68C" stroke="#0E0D0F"/>
<path d="M54.3598 26.5219C53.9178 19.8915 54.3598 5.83506 59.6641 2.65247" stroke="#0E0D0F"/>
<path d="M55.7807 26.5219C55.457 22.47 55.7807 13.8799 59.664 11.935" stroke="#0E0D0F"/>
</svg>
