<svg width="56" height="56" viewBox="0 0 56 56" fill="none" xmlns="http://www.w3.org/2000/svg">
<path d="M36.0822 3.87608L51.9884 19.7823C56.4794 24.2733 56.4794 31.5547 51.9884 36.0457L36.0822 51.9519C31.5912 56.4429 24.3098 56.4429 19.8188 51.9519L3.91258 36.0457C-0.578446 31.5547 -0.578446 24.2733 3.91258 19.7823L19.8188 3.87608C24.3098 -0.614945 31.5912 -0.614945 36.0822 3.87608Z" fill="#FDED99" stroke="black"/>
<path d="M18.5739 25.1623C19.113 24.6232 19.8443 24.3203 20.6068 24.3203H32.1068V19.547C32.1068 18.6561 33.184 18.2099 33.8139 18.8399L41.4622 26.4882C41.8527 26.8787 41.8527 27.5119 41.4622 27.9024L33.8139 35.5507C33.184 36.1806 32.1068 35.7345 32.1068 34.8436V30.0703H23.4818V37.6953C23.4818 38.2476 23.0341 38.6953 22.4818 38.6953H18.7318C18.1795 38.6953 17.7318 38.2476 17.7318 37.6953V27.1953C17.7318 26.4328 18.0347 25.7015 18.5739 25.1623Z" fill="black"/>
</svg>
