<svg width="76" height="75" viewBox="0 0 76 75" fill="none" xmlns="http://www.w3.org/2000/svg">
<path d="M71.4844 37.5C71.4844 55.9929 56.4929 70.9844 38 70.9844C19.5071 70.9844 4.51562 55.9929 4.51562 37.5C4.51562 19.0071 19.5071 4.01562 38 4.01562C56.4929 4.01562 71.4844 19.0071 71.4844 37.5Z" fill="#FAA68C" stroke="#0E0D0F"/>
<path d="M16.1973 42.1289C17.0469 43.9688 19.127 44.8066 21.6172 44.8066C24.1074 44.8066 26.0996 43.998 26.9844 42.2402" stroke="#0E0D0F" stroke-miterlimit="10" stroke-linecap="round"/>
<path d="M49.0098 42.1289C49.8594 43.9688 51.9395 44.8066 54.4297 44.8066C56.9199 44.8066 58.9121 43.998 59.7969 42.2402" stroke="#0E0D0F" stroke-miterlimit="10" stroke-linecap="round"/>
<path d="M47.9609 62.6953C50.2262 62.6953 52.0625 60.859 52.0625 58.5938C52.0625 56.3285 50.2262 54.4922 47.9609 54.4922C45.6957 54.4922 43.8594 56.3285 43.8594 58.5938C43.8594 60.859 45.6957 62.6953 47.9609 62.6953Z" fill="#0E0D0F"/>
<path fill-rule="evenodd" clip-rule="evenodd" d="M46.0625 8.20312C46.0625 7.3747 46.7341 6.70312 47.5625 6.70312H56.2695C56.8302 6.70312 57.3441 7.01583 57.6018 7.5138C57.8594 8.01178 57.8179 8.61188 57.494 9.06957L50.4615 19.0078H56.2695C57.098 19.0078 57.7695 19.6794 57.7695 20.5078C57.7695 21.3362 57.098 22.0078 56.2695 22.0078H47.5625C47.0018 22.0078 46.4879 21.6951 46.2303 21.1971C45.9726 20.6992 46.0142 20.0991 46.3381 19.6414L53.3705 9.70312H47.5625C46.7341 9.70312 46.0625 9.03155 46.0625 8.20312Z" fill="#0E0D0F"/>
<path fill-rule="evenodd" clip-rule="evenodd" d="M59.9375 18.1641C59.9375 17.3356 60.6091 16.6641 61.4375 16.6641H65.8731C66.4337 16.6641 66.9475 16.9767 67.2052 17.4746C67.4629 17.9725 67.4214 18.5725 67.0977 19.0302L64.2126 23.1094H66.125C66.9534 23.1094 67.625 23.7809 67.625 24.6094C67.625 25.4378 66.9534 26.1094 66.125 26.1094H61.3145C60.7538 26.1094 60.24 25.7967 59.9823 25.2989C59.7246 24.801 59.7661 24.2009 60.0898 23.7432L62.9749 19.6641H61.4375C60.6091 19.6641 59.9375 18.9925 59.9375 18.1641Z" fill="#0E0D0F"/>
</svg>
