<svg width="256" height="256" viewBox="-22 -33 190 190"
  xmlns="http://www.w3.org/2000/svg">
  <rect xmlns="http://www.w3.org/2000/svg" x="-22" y="-33" width="190" height="190" fill="white"/>
  <path d="M3.68588 100.262L3.67383 100.076V66.8195H141.702V100.076L141.69 100.262C141.524 102.83 139.62 105.376 136.078 107.767C132.552 110.148 127.498 112.308 121.252 114.128C108.767 117.766 91.6221 120.017 72.688 120.017C53.7539 120.017 36.6094 117.766 24.1236 114.128C17.8779 112.308 12.8241 110.148 9.29785 107.767C5.75624 105.376 3.85233 102.83 3.68588 100.262Z" fill="#000" stroke="#000"/>
  <path d="M3.68588 100.262L3.67383 100.076V67.2175H141.702V100.076L141.69 100.262C141.524 102.83 139.62 105.376 136.078 107.767C132.552 110.148 127.498 112.308 121.252 114.128C108.767 117.766 91.6221 120.017 72.688 120.017C53.7539 120.017 36.6094 117.766 24.1236 114.128C17.8779 112.308 12.8241 110.148 9.29785 107.767C5.75624 105.376 3.85233 102.83 3.68588 100.262Z" fill="#D3A7E4" stroke="#000"/>
  <path d="M141.702 66.3196C141.702 69.0092 139.914 71.6683 136.447 74.169C132.992 76.6614 127.959 78.9266 121.696 80.8374C109.176 84.6572 91.8485 87.0273 72.688 87.0273C53.5275 87.0273 36.2004 84.6572 23.68 80.8374C17.4166 78.9266 12.3844 76.6614 8.9291 74.169C5.46214 71.6683 3.67383 69.0092 3.67383 66.3196C3.67383 63.6299 5.46214 60.9708 8.9291 58.4701C12.3844 55.9777 17.4166 53.7125 23.68 51.8017C36.2004 47.9819 53.5275 45.6118 72.688 45.6118C91.8485 45.6118 109.176 47.9819 121.696 51.8017C127.959 53.7125 132.992 55.9777 136.447 58.4701C139.914 60.9708 141.702 63.6299 141.702 66.3196Z" fill="white" stroke="#000"/>
  <path d="M141.702 66.3196C141.702 69.0092 139.914 71.6683 136.447 74.169C132.992 76.6614 127.959 78.9266 121.696 80.8374C109.176 84.6572 91.8485 87.0273 72.688 87.0273C53.5275 87.0273 36.2004 84.6572 23.68 80.8374C17.4166 78.9266 12.3844 76.6614 8.9291 74.169C5.46214 71.6683 3.67383 69.0092 3.67383 66.3196C3.67383 63.6299 5.46214 60.9708 8.9291 58.4701C12.3844 55.9777 17.4166 53.7125 23.68 51.8017C36.2004 47.9819 53.5275 45.6118 72.688 45.6118C91.8485 45.6118 109.176 47.9819 121.696 51.8017C127.959 53.7125 132.992 55.9777 136.447 58.4701C139.914 60.9708 141.702 63.6299 141.702 66.3196Z" fill="white" stroke="#000"/>
  <path d="M28.3382 63.1211L28.3293 62.9884L28.3291 40.1592H133.368L133.368 62.9885L133.359 63.1211C133.236 64.9522 131.83 66.8031 129.137 68.5657C126.461 70.3164 122.618 71.909 117.86 73.2528C108.349 75.9388 95.2829 77.6018 80.8486 77.6018C66.4143 77.6018 53.3482 75.9388 43.8372 73.2528C39.0787 71.909 35.2362 70.3164 32.5605 68.5657C29.8667 66.8031 28.4607 64.9522 28.3382 63.1211Z" fill="#FAA68C" stroke="#000"/>
  <path d="M133.368 39.2208C133.368 41.0844 132.057 42.9684 129.419 44.7698C126.798 46.5601 122.972 48.1923 118.2 49.571C108.662 52.3264 95.456 54.0375 80.8484 54.0375C66.2408 54.0375 53.0349 52.3264 43.4969 49.571C38.7245 48.1923 34.8988 46.5601 32.2776 44.7698C29.6401 42.9684 28.3291 41.0844 28.3291 39.2208C28.3291 37.3572 29.6401 35.4732 32.2776 33.6717C34.8988 31.8814 38.7245 30.2493 43.4969 28.8706C53.0349 26.1152 66.2408 24.4041 80.8484 24.4041C95.456 24.4041 108.662 26.1152 118.2 28.8706C122.972 30.2493 126.798 31.8814 129.419 33.6717C132.057 35.4732 133.368 37.3572 133.368 39.2208Z" fill="white" stroke="#000"/>
  <path d="M35.797 35.83L35.7915 35.7562V14.1052H107.84V35.7562L107.835 35.83C107.759 36.8492 106.873 37.9511 105.016 39.0415C103.19 40.1145 100.557 41.0959 97.2834 41.9257C90.7437 43.5838 81.7528 44.6118 71.8159 44.6118C61.879 44.6118 52.8881 43.5838 46.3484 41.9257C43.0753 41.0959 40.4421 40.1145 38.6155 39.0415C36.7592 37.9511 35.8729 36.8492 35.797 35.83Z" fill="#FDED99" stroke="#000"/>
  <path d="M107.84 13.3003C107.84 14.5144 106.989 15.7784 105.187 17.0155C103.401 18.2417 100.783 19.366 97.5031 20.3182C90.9503 22.2206 81.8684 23.4041 71.8159 23.4041C61.7634 23.4041 52.6814 22.2206 46.1287 20.3182C42.8489 19.366 40.2312 18.2417 38.4447 17.0155C36.6424 15.7784 35.7915 14.5144 35.7915 13.3003C35.7915 12.0862 36.6424 10.8221 38.4447 9.585C40.2312 8.35879 42.8489 7.23456 46.1287 6.28238C52.6814 4.37996 61.7634 3.19641 71.8159 3.19641C81.8684 3.19641 90.9503 4.37996 97.5031 6.28238C100.783 7.23456 103.401 8.35879 105.187 9.585C106.989 10.8221 107.84 12.0862 107.84 13.3003Z" fill="white" stroke="#000"/>
  <path d="M105.608 75.6299V52.3452C120.684 49.9304 130.192 46.2844 133.491 40.9646V63.8837C131.199 69.5419 118.695 74.0234 105.608 75.6299Z" fill="#0E0D0F"/>
  <path d="M103.166 117.887V84.9482C125.45 81.3914 135.73 76.5712 141.441 69.2275V101.629C140.03 108.373 126.394 114.039 103.166 117.887Z" fill="#0E0D0F"/>
  <path d="M88.2834 43.3996V22.2497C98.6524 20.6745 101.096 20.2503 107.707 15.0369V36.4522C102.517 41.738 99.0268 41.5297 88.2834 43.3996Z" fill="#0E0D0F"/>
</svg>
