<svg width="430" height="79" viewBox="0 0 430 79" fill="none" xmlns="http://www.w3.org/2000/svg">
<circle cx="23.5" cy="54.5" r="21.2457" fill="#E44BDC" stroke="#111111" stroke-width="3.49143"/>
<circle cx="48.5952" cy="23.4041" r="21.2457" fill="#9C67F6" stroke="#111111" stroke-width="3.49143"/>
<path d="M59.0379 76.7255C65.5457 76.7255 70.8214 71.4498 70.8214 64.9419C70.8214 58.434 65.5457 53.1583 59.0379 53.1583C52.53 53.1583 47.2543 58.434 47.2543 64.9419C47.2543 71.4498 52.53 76.7255 59.0379 76.7255Z" fill="#FEB000" stroke="#111111" stroke-width="3.49143"/>
<path d="M13.8196 26.789C20.207 26.789 25.385 21.6111 25.385 15.2237C25.385 8.83633 20.207 3.65834 13.8196 3.65834C7.43227 3.65834 2.25429 8.83633 2.25429 15.2237C2.25429 21.6111 7.43227 26.789 13.8196 26.789Z" fill="#02E173" stroke="#111111" stroke-width="3.49143"/>
<path d="M153.832 58.9939C161.828 66.906 178.568 66.906 186.563 58.9939C194.975 51.415 195.058 35.7576 186.563 28.1787C178.568 20.2667 161.828 20.2667 153.832 28.1787C145.337 35.7576 145.421 51.415 153.832 58.9939ZM162.577 43.503C162.577 38.8391 164.909 36.5071 169.99 36.5071H170.489C175.403 36.5071 177.818 38.9224 177.818 43.6696C177.818 48.3335 175.486 50.6655 170.406 50.6655H169.906C164.993 50.6655 162.577 48.2502 162.577 43.503Z" fill="currentColor"/>
<path d="M197.22 63.6579H211.295V9.18982H197.22V63.6579Z" fill="currentColor"/>
<path d="M235.652 64.9904C243.897 64.9071 252.226 60.9928 254.974 51.0819H241.899C241.899 51.0819 240.483 53.9969 235.819 53.9969H235.069C230.405 53.9969 228.073 50.4156 227.907 47.8338H255.391C256.307 39.1722 253.309 22.8485 235.236 22.8485C227.157 22.8485 214.331 26.6796 214.165 43.4197C213.998 62.1587 229.073 65.0737 235.652 64.9904ZM227.99 38.9224C228.24 35.0913 231.238 33.259 234.986 33.259H235.153C239.067 33.259 241.815 35.0913 242.065 38.9224H227.99Z" fill="currentColor"/>
<path d="M258.349 63.6579H272.424V60.4098C281.669 70.2373 302.074 63.6579 302.407 43.4197C302.657 25.93 284.001 16.4356 272.424 26.6796V9.18982H258.349V63.6579ZM272.341 43.6696C272.341 39.0057 274.673 36.5904 279.753 36.5904H280.17C285.084 36.5904 287.499 39.0889 287.499 43.8362C287.499 48.4168 285.167 50.8321 280.086 50.8321H279.67C274.756 50.8321 272.341 48.3335 272.341 43.6696Z" fill="currentColor"/>
<path d="M346.825 63.991H350.489V51.415H347.491V23.7646H333.416V26.6796C331.167 24.3476 328.335 22.5153 322.506 22.5153C304.266 22.5986 297.77 46.418 308.93 58.8274C316.676 67.6555 329.835 65.9898 337.58 59.5769C339.829 62.4086 343.243 63.991 346.825 63.991ZM318.258 43.3365C318.258 38.6725 320.59 36.3406 325.67 36.3406H326.17C331.084 36.3406 333.499 38.7558 333.499 43.503C333.499 48.167 331.167 50.4989 326.087 50.4989H325.587C320.673 50.4989 318.258 48.0837 318.258 43.3365Z" fill="currentColor"/>
<path d="M366.596 65.0737C377.589 65.0737 384.668 59.1605 384.668 49.9159C384.668 36.2573 368.095 39.2555 368.095 35.1746C368.095 33.7587 369.344 32.9259 371.509 32.9259C374.674 32.9259 378.672 35.0913 382.336 35.591V24.5142C374.841 21.5159 364.18 21.4326 358.767 26.2631C353.52 30.5106 351.938 40.4215 358.017 44.9189C364.68 49.9159 370.51 47.7505 370.51 51.3318C370.51 52.8309 369.011 53.747 367.012 53.747C363.181 53.747 358.767 50.4156 354.852 50.4156V62.4086C358.517 64.1576 362.515 65.0737 366.596 65.0737Z" fill="currentColor"/>
<path d="M409.232 64.9904C417.477 64.9071 425.806 60.9928 428.554 51.0819H415.478C415.478 51.0819 414.063 53.9969 409.399 53.9969H408.649C403.985 53.9969 401.653 50.4156 401.487 47.8338H428.97C429.887 39.1722 426.888 22.8485 408.816 22.8485C400.737 22.8485 387.911 26.6796 387.745 43.4197C387.578 62.1587 402.653 65.0737 409.232 64.9904ZM401.57 38.9224C401.82 35.0913 404.818 33.259 408.566 33.259H408.732C412.647 33.259 415.395 35.0913 415.645 38.9224H401.57Z" fill="currentColor"/>
<path fill-rule="evenodd" clip-rule="evenodd" d="M101.145 9.96364C101.578 27.7483 102.186 63.578 101.145 64.6191C100.104 65.6601 111.121 65.0528 116.76 64.6191V54.8592H123.267L127.822 64.6191H144.088L137.582 50.3046C142.57 45.533 150.855 32.997 144.088 21.0249C137.109 8.67697 124.371 9.17525 110.261 9.72723C107.27 9.84423 104.217 9.96364 101.145 9.96364ZM116.76 39.894V24.9288C117.151 24.9288 117.655 24.9006 118.239 24.868C122.512 24.6288 131.075 24.1497 131.075 32.7367C131.075 40.5447 121.532 40.7615 116.76 39.894Z" fill="currentColor"/>
</svg>
