<svg xmlns="http://www.w3.org/2000/svg" width="2776" height="732" viewBox="0 0 2776 732" version="1.1"><path d="M 304.500 197.007 C 303.198 197.572, 304.152 197.675, 307.236 197.303 C 315.708 196.282, 314.970 186.830, 315.245 299.872 L 315.490 400.500 315.750 300.193 C 315.926 232.178, 315.675 199.261, 314.970 197.943 C 313.848 195.847, 308.318 195.353, 304.500 197.007 M 1539.667 219.667 C 1539.300 220.033, 1539.109 276.171, 1539.242 344.417 L 1539.484 468.500 1539.992 345 C 1540.271 277.075, 1540.864 220.938, 1541.309 220.250 C 1542.147 218.955, 1540.842 218.491, 1539.667 219.667 M 1609.932 228.250 C 1609.649 237.640, 1610.103 276.437, 1610.501 276.834 C 1610.775 277.109, 1611 265.783, 1611 251.667 C 1611 237.550, 1610.775 226, 1610.500 226 C 1610.225 226, 1609.970 227.012, 1609.932 228.250 M 521 269.847 C 521 270.437, 522.237 270.870, 523.750 270.810 C 525.263 270.749, 530.681 270.824, 535.792 270.975 C 540.902 271.126, 545.365 270.968, 545.709 270.625 C 546.052 270.281, 542.996 269.989, 538.917 269.976 C 534.837 269.962, 529.138 269.686, 526.250 269.363 C 522.813 268.977, 521 269.144, 521 269.847 M 1100 269.978 C 1092.860 270.523, 1094.299 270.665, 1109 270.861 C 1118.625 270.989, 1129.875 271.269, 1134 271.483 C 1139.976 271.792, 1140.586 271.709, 1137 271.073 C 1130.151 269.859, 1109.538 269.248, 1100 269.978 M 1373.500 270.048 C 1359.989 271.421, 1359.168 271.887, 1371.500 271.185 C 1385.783 270.371, 1390.445 270.367, 1408.500 271.153 C 1416.750 271.511, 1421.250 271.449, 1418.500 271.013 C 1410 269.665, 1382.969 269.086, 1373.500 270.048 M 1824.250 269.665 C 1821.362 269.907, 1819 270.558, 1819 271.111 C 1819 271.665, 1819.462 271.833, 1820.026 271.484 C 1821.320 270.684, 1842.037 270.588, 1856.500 271.316 C 1864.162 271.701, 1865.983 271.611, 1862.500 271.018 C 1856.273 269.959, 1831.304 269.076, 1824.250 269.665 M 2148.500 269.947 C 2144.888 270.481, 2147.663 270.731, 2158.500 270.850 C 2166.750 270.940, 2176.650 271.221, 2180.500 271.473 C 2186.411 271.861, 2186.793 271.800, 2182.958 271.079 C 2176.254 269.819, 2154.260 269.096, 2148.500 269.947 M 833.083 270.375 C 833.313 270.581, 842.725 270.952, 854 271.200 C 865.275 271.448, 872.475 271.313, 870 270.900 C 865.481 270.145, 832.303 269.673, 833.083 270.375 M 2405.130 270.463 C 2405.814 271.147, 2444.074 271.259, 2444.754 270.580 C 2445.073 270.261, 2436.183 270, 2425 270 C 2413.817 270, 2404.875 270.208, 2405.130 270.463 M 692.200 278.200 C 691.277 279.123, 691.055 308.146, 691.237 403.950 L 691.473 528.500 691.987 404.213 C 692.437 295.213, 692.684 279.808, 694 278.958 C 694.894 278.381, 708.293 278.023, 727.165 278.072 C 761.723 278.162, 761.194 278.073, 762.273 284 C 762.674 286.203, 762.744 286.132, 762.864 283.405 C 763.144 277.029, 762.982 277, 726.371 277 C 702.060 277, 693.085 277.315, 692.200 278.200 M 1647 277.981 L 1682.500 278.500 1683.029 291 C 1683.320 297.875, 1683.545 310.770, 1683.529 319.655 C 1683.513 328.540, 1683.838 335.601, 1684.250 335.346 C 1685.587 334.519, 1685.154 279.554, 1683.800 278.200 C 1682.903 277.303, 1673.630 277.058, 1647.050 277.231 L 1611.500 277.461 1647 277.981 M 2004.872 278.653 C 2003.726 280.034, 2003.496 299.879, 2003.476 398.903 L 2003.452 517.500 2003.976 398.833 C 2004.264 333.566, 2004.875 279.791, 2005.333 279.333 C 2005.792 278.875, 2021.611 278.500, 2040.488 278.500 C 2059.364 278.500, 2074.289 278.169, 2073.655 277.765 C 2073.020 277.361, 2057.593 277.024, 2039.372 277.015 C 2009.767 277.002, 2006.099 277.176, 2004.872 278.653 M 2075.402 295 C 2075.402 303.525, 2075.556 307.012, 2075.743 302.750 C 2075.931 298.488, 2075.931 291.512, 2075.743 287.250 C 2075.556 282.988, 2075.402 286.475, 2075.402 295 M 243.472 387 C 243.472 424.125, 243.597 439.313, 243.750 420.750 C 243.902 402.188, 243.902 371.813, 243.750 353.250 C 243.597 334.688, 243.472 349.875, 243.472 387 M 1415 329.888 C 1423.509 332.642, 1430.788 336.725, 1436.296 341.834 C 1439.063 344.400, 1440.916 345.757, 1440.414 344.850 C 1437.385 339.378, 1417.727 327.901, 1411.645 328.054 C 1410.465 328.083, 1411.975 328.909, 1415 329.888 M 1621.500 335.925 C 1614.831 336.383, 1623.297 336.677, 1646.917 336.806 C 1666.396 336.913, 1682.109 336.776, 1681.835 336.501 C 1680.993 335.660, 1632.130 335.193, 1621.500 335.925 M 1609.867 340.250 C 1609.665 341.488, 1609.733 366.800, 1610.017 396.500 L 1610.534 450.500 1610.767 394.250 C 1610.895 363.313, 1610.827 338, 1610.617 338 C 1610.406 338, 1610.068 339.012, 1609.867 340.250 M 1442.556 349.250 L 1444.230 352 1475.865 351.765 L 1507.500 351.530 1476.149 351.250 C 1445.114 350.974, 1444.778 350.949, 1442.839 348.736 L 1440.881 346.500 1442.556 349.250 M 948.517 353.052 C 948.767 356.106, 949.256 396.606, 949.605 443.052 C 949.954 489.499, 950.434 527.711, 950.671 527.968 C 951.714 529.099, 950.239 355.341, 949.173 351.500 C 948.069 347.522, 948.066 347.530, 948.517 353.052 M 1379.434 366.893 C 1379.810 367.502, 1380.922 368, 1381.905 368 C 1382.888 368, 1384.999 368.648, 1386.596 369.440 C 1388.193 370.231, 1391.975 371.116, 1395 371.404 C 1398.025 371.693, 1399.600 371.685, 1398.500 371.387 C 1396.532 370.853, 1384.289 367.388, 1380.625 366.328 C 1379.412 365.977, 1378.991 366.177, 1379.434 366.893 M 2263.476 446 C 2263.476 489.725, 2263.599 507.612, 2263.750 485.750 C 2263.900 463.887, 2263.900 428.112, 2263.750 406.250 C 2263.599 384.387, 2263.476 402.275, 2263.476 446 M 1051 377.250 C 1051 377.663, 1074.513 377.898, 1103.250 377.773 C 1131.987 377.649, 1147.175 377.425, 1137 377.276 C 1089.441 376.580, 1050.999 376.569, 1051 377.250 M 2363.799 377.150 C 2362.534 377.508, 2385.125 377.749, 2414 377.687 C 2442.875 377.624, 2461.550 377.447, 2455.500 377.293 C 2430.139 376.650, 2365.921 376.550, 2363.799 377.150 M 2191.473 447.500 C 2191.474 486, 2191.598 501.605, 2191.750 482.177 C 2191.902 462.749, 2191.901 431.249, 2191.749 412.177 C 2191.598 393.105, 2191.473 409, 2191.473 447.500 M 971.982 383.583 C 971.972 384.637, 971.537 389.550, 971.014 394.500 C 970.492 399.450, 970.387 407.550, 970.782 412.500 C 971.447 420.839, 971.544 420.067, 972.096 402 C 972.423 391.275, 972.536 382.313, 972.346 382.083 C 972.156 381.854, 971.992 382.529, 971.982 383.583 M 879.475 456 C 879.475 496.425, 879.598 512.962, 879.750 492.750 C 879.901 472.538, 879.901 439.463, 879.750 419.250 C 879.598 399.038, 879.475 415.575, 879.475 456 M 2075.471 466 C 2075.471 500.925, 2075.596 515.212, 2075.749 497.750 C 2075.903 480.287, 2075.903 451.712, 2075.749 434.250 C 2075.596 416.787, 2075.471 431.075, 2075.471 466 M 315.411 422 C 315.411 431.625, 315.561 435.563, 315.745 430.750 C 315.928 425.938, 315.928 418.063, 315.745 413.250 C 315.561 408.438, 315.411 412.375, 315.411 422 M 1098.750 419.750 C 1124.737 419.898, 1167.262 419.898, 1193.250 419.750 C 1219.237 419.601, 1197.975 419.480, 1146 419.480 C 1094.025 419.480, 1072.762 419.601, 1098.750 419.750 M 2404.826 419.750 C 2430.305 419.898, 2471.705 419.898, 2496.826 419.750 C 2521.947 419.601, 2501.100 419.479, 2450.500 419.479 C 2399.900 419.479, 2379.347 419.601, 2404.826 419.750 M 1514.340 434.250 C 1515.985 440.897, 1517.088 451.401, 1516.856 458.213 C 1516.712 462.456, 1516.910 466.243, 1517.297 466.630 C 1518.092 467.425, 1518.396 462.571, 1518.151 453 C 1517.984 446.498, 1515.342 432, 1514.323 432 C 1514.026 432, 1514.034 433.012, 1514.340 434.250 M 1171.500 451 C 1170.505 452.100, 1170.183 453, 1170.786 453 C 1171.389 453, 1172.160 452.550, 1172.500 452 C 1172.893 451.365, 1185.724 451, 1207.699 451 C 1239.467 451, 1242.384 451.142, 1243.558 452.748 C 1244.261 453.710, 1245.210 454.123, 1245.667 453.667 C 1246.123 453.210, 1245.723 452.270, 1244.776 451.578 C 1243.015 450.290, 1213.947 449.008, 1186.405 449.002 C 1174.578 449, 1173.135 449.194, 1171.500 451 M 1277 449.821 C 1275.075 449.998, 1273.184 450.448, 1272.799 450.821 C 1272.413 451.195, 1287.452 451.360, 1306.220 451.189 C 1339.983 450.880, 1340.375 450.900, 1343.421 453.070 L 1346.500 455.262 1343.726 452.381 L 1340.951 449.500 1310.726 449.500 C 1294.102 449.500, 1278.925 449.645, 1277 449.821 M 2484.571 450.571 C 2483.707 451.436, 2483 452.426, 2483 452.771 C 2483 453.117, 2483.540 452.860, 2484.200 452.200 C 2485.087 451.313, 2494.394 451, 2519.871 451 C 2550.590 451, 2554.542 451.181, 2556.177 452.661 C 2558.235 454.523, 2560.060 453.660, 2558.134 451.734 C 2556.692 450.292, 2535.526 449.222, 2505.821 449.088 C 2489.184 449.014, 2485.900 449.243, 2484.571 450.571 M 1443.175 458.185 C 1442.756 469.418, 1437.248 475.111, 1422.500 479.554 C 1416.027 481.504, 1391.378 482.247, 1383.500 480.729 C 1380.769 480.203, 1380.002 480.269, 1381.083 480.936 C 1384.888 483.284, 1399.185 484.282, 1409.914 482.949 C 1421.718 481.482, 1430.577 478.446, 1436.745 473.754 C 1442.660 469.255, 1444.405 465.331, 1443.751 458 L 1443.349 453.500 1443.175 458.185 M 1618.500 465.994 C 1619.600 467.253, 1622.715 469.319, 1625.422 470.584 C 1630.192 472.813, 1631.169 472.882, 1656.922 472.781 L 1683.500 472.678 1655.832 472.035 L 1628.164 471.392 1622.332 467.548 C 1618.252 464.858, 1617.101 464.391, 1618.500 465.994 M 2387.397 467.806 C 2389.485 470.202, 2404.038 477.909, 2408 478.718 C 2409.375 478.999, 2416.800 479.337, 2424.500 479.469 L 2438.500 479.710 2424.500 479.056 C 2407.791 478.275, 2399.097 475.617, 2389 468.201 C 2386.035 466.024, 2385.790 465.963, 2387.397 467.806 M 332.500 471.169 C 333.921 472.107, 339.857 472.591, 353 472.839 C 364.951 473.065, 372.031 473.598, 373 474.344 C 374.280 475.330, 374.313 475.261, 373.227 473.870 C 372.157 472.499, 368.975 472.164, 353.227 471.766 C 342.927 471.505, 333.600 470.967, 332.500 470.570 L 330.500 469.849 332.500 471.169 M 1080.330 471.725 C 1080.810 472.501, 1084.541 474.305, 1094.651 478.647 C 1096.892 479.609, 1101.948 479.947, 1112.151 479.815 L 1126.500 479.630 1112.500 478.989 C 1098.311 478.340, 1091.722 476.930, 1083.645 472.816 C 1081.525 471.736, 1080.033 471.245, 1080.330 471.725 M 1812.134 474.408 C 1813.583 475.252, 1818.287 476.908, 1822.586 478.087 C 1829.121 479.880, 1832.341 480.163, 1842.207 479.811 C 1848.990 479.569, 1854.484 478.916, 1855.126 478.274 C 1855.947 477.453, 1855.088 477.427, 1851.871 478.175 C 1849.467 478.734, 1842.550 478.968, 1836.500 478.694 C 1826.506 478.243, 1823.016 477.526, 1811.500 473.561 C 1810.400 473.183, 1810.685 473.563, 1812.134 474.408 M 374.233 501.668 C 374.105 516.061, 373.741 528.661, 373.424 529.668 C 372.903 531.329, 372.951 531.342, 373.941 529.809 C 374.680 528.666, 374.941 519.593, 374.749 501.809 L 374.465 475.500 374.233 501.668 M 539 478.169 C 536.525 478.692, 529.100 478.951, 522.500 478.745 C 515.900 478.540, 511.850 478.685, 513.500 479.067 C 519.374 480.430, 540.329 480.027, 543 478.500 C 545.839 476.877, 545.322 476.834, 539 478.169 M 1687.436 502.500 C 1687.436 516.800, 1687.577 522.511, 1687.748 515.191 C 1687.919 507.871, 1687.918 496.171, 1687.747 489.191 C 1687.575 482.211, 1687.435 488.200, 1687.436 502.500 M 2192.267 529 L 2192.500 531.500 2220 531.533 L 2247.500 531.566 2220.600 531.033 C 2194.906 530.524, 2193.663 530.410, 2192.867 528.500 C 2192.135 526.741, 2192.062 526.801, 2192.267 529 M 692.256 530 C 692.601 531.264, 695.636 531.506, 711.583 531.535 L 730.500 531.571 712.045 531.262 C 698.912 531.042, 693.338 530.600, 692.718 529.727 C 692.088 528.838, 691.960 528.914, 692.256 530 M 880.865 531.266 C 881.287 531.687, 894.427 531.912, 910.066 531.765 L 938.500 531.498 909.299 530.999 C 893.238 530.725, 880.443 530.845, 880.865 531.266 M 331.302 531.746 C 336.693 531.926, 345.243 531.925, 350.302 531.744 C 355.361 531.563, 350.950 531.416, 340.500 531.417 C 330.050 531.418, 325.911 531.566, 331.302 531.746 M 2019.308 531.748 C 2026.353 531.920, 2037.603 531.919, 2044.308 531.747 C 2051.014 531.574, 2045.250 531.433, 2031.500 531.434 C 2017.750 531.434, 2012.264 531.576, 2019.308 531.748" stroke="none" fill="#73530c" fill-rule="evenodd"/><path d="M 1596 199.097 C 1591.325 200.792, 1579.625 204.848, 1570 208.110 C 1560.375 211.371, 1551.150 214.656, 1549.500 215.409 C 1547.850 216.162, 1545.536 217.068, 1544.358 217.422 C 1543.179 217.776, 1541.708 219.290, 1541.089 220.786 C 1540.268 222.767, 1540.041 257.488, 1540.252 348.503 L 1540.543 473.500 1542.817 479.985 C 1547.479 493.282, 1558.349 508.299, 1567.522 514.116 C 1569.879 515.611, 1572.188 517.450, 1572.654 518.203 C 1573.954 520.307, 1587.739 526.528, 1596.580 529.001 C 1604.117 531.109, 1606.450 531.222, 1644.798 531.339 C 1679.392 531.444, 1685.229 531.252, 1686.033 529.981 C 1686.553 529.158, 1686.976 516.635, 1686.985 501.785 C 1686.999 476.619, 1686.891 475.012, 1685.113 474.061 C 1683.992 473.460, 1672.502 473.017, 1656.785 472.968 C 1631.265 472.888, 1630.169 472.803, 1625.298 470.546 C 1621.989 469.014, 1618.999 466.569, 1616.619 463.452 C 1610.044 454.841, 1610.051 454.917, 1609.974 393.725 C 1609.913 344.902, 1610.083 338.488, 1611.479 337.092 C 1612.852 335.719, 1617.523 335.520, 1647.997 335.533 L 1682.940 335.548 1683.581 332.631 C 1684.255 329.564, 1683.106 280.044, 1682.331 278.750 C 1682.084 278.337, 1666.271 277.993, 1647.191 277.985 C 1628.111 277.976, 1611.939 277.613, 1611.253 277.178 C 1610.300 276.573, 1609.968 267.914, 1609.845 240.443 C 1609.682 204.100, 1609.038 196.788, 1605.958 196.263 C 1605.156 196.126, 1600.675 197.401, 1596 199.097 M 299.500 199.609 C 295.650 201.003, 286.200 204.302, 278.500 206.940 C 253.302 215.574, 247.132 218.371, 245.278 222 C 244.257 223.997, 244.051 249.160, 244.253 347 L 244.505 469.500 246.844 475.955 C 250.039 484.774, 252.766 490.550, 256.638 496.701 C 260.139 502.261, 273.622 517, 275.208 517 C 275.732 517, 278.487 518.532, 281.331 520.404 C 287.554 524.502, 291.577 526.216, 301.546 529.013 C 308.484 530.960, 311.719 531.143, 340.644 531.231 C 366.808 531.311, 372.332 531.087, 373.074 529.914 C 374.548 527.586, 374.245 475.446, 372.750 474.217 C 372.032 473.626, 363.621 473.033, 353 472.823 C 337.414 472.515, 333.949 472.167, 331 470.611 C 324.495 467.178, 320.982 463.897, 318.235 458.688 L 315.500 453.500 315.186 326.525 C 314.969 239.146, 314.541 199.152, 313.813 198.275 C 312.207 196.340, 307.255 196.802, 299.500 199.609 M 509.500 271.151 C 450.598 276.282, 401.580 316.668, 387.095 372 C 381.885 391.901, 381.996 419.756, 387.360 438.500 C 392.262 455.629, 402.055 474.597, 412.890 487.949 C 417.806 494.007, 426.675 503, 427.733 503 C 428.208 503, 430.587 504.912, 433.020 507.250 C 435.452 509.587, 438.131 511.344, 438.971 511.155 C 439.812 510.965, 440.174 511.141, 439.776 511.546 C 437.467 513.892, 476.936 532.973, 484.168 533.006 C 484.901 533.010, 486.625 533.594, 488 534.305 C 489.375 535.016, 492.484 535.711, 494.909 535.849 C 497.334 535.987, 500.034 536.482, 500.909 536.949 C 504.669 538.955, 533.108 540.384, 538.500 538.837 C 542.237 537.766, 551.750 536.239, 558.992 535.550 C 562.012 535.262, 566.737 534.290, 569.492 533.389 C 572.246 532.488, 576.525 531.089, 579 530.281 C 585.345 528.208, 603.546 519.253, 605.017 517.479 C 605.692 516.666, 606.702 516, 607.260 516 C 609.743 516, 623.015 506.041, 631.122 498.094 C 636.005 493.308, 640 489.045, 640 488.622 C 640 488.198, 642.587 484.418, 645.750 480.221 C 652.249 471.598, 652.740 470.807, 656.739 462.500 C 662.229 451.096, 663.174 448.546, 666.133 437.151 C 670.017 422.192, 671.128 398.623, 668.615 384.500 C 665.978 369.680, 660.452 353.239, 654.665 343 C 653.577 341.075, 652.195 338.593, 651.593 337.484 C 650.992 336.375, 647.713 331.615, 644.306 326.906 C 636.481 316.089, 623.608 303.834, 612.283 296.419 C 603.402 290.604, 580.409 279, 577.767 279 C 576.979 279, 576.024 278.691, 575.646 278.313 C 575.268 277.935, 574.181 277.497, 573.230 277.339 C 565.983 276.136, 564.263 275.763, 562.500 275.014 C 555.752 272.148, 551.974 271.702, 525.500 270.646 C 521.650 270.493, 514.450 270.720, 509.500 271.151 M 1370.500 271.577 C 1363.350 272.298, 1355.250 273.326, 1352.500 273.863 C 1340.680 276.169, 1323.414 283.751, 1314 290.770 C 1306.454 296.395, 1293.967 309.915, 1290.401 316.320 C 1284.128 327.587, 1282.744 333.478, 1282.723 349 C 1282.693 370.964, 1289.852 385.655, 1307.838 400.536 C 1311.502 403.568, 1314.970 406.375, 1315.544 406.774 C 1317.714 408.283, 1331.683 414.953, 1336 416.540 C 1342.408 418.897, 1361.853 423.965, 1366 424.359 C 1367.925 424.542, 1370.287 424.986, 1371.250 425.346 C 1376.016 427.128, 1377.449 427.439, 1401.681 431.949 C 1410.854 433.656, 1429.042 439.866, 1431.450 442.114 C 1431.973 442.601, 1433.119 443, 1433.997 443 C 1434.875 443, 1437.298 444.745, 1439.381 446.878 C 1442.686 450.262, 1443.236 451.516, 1443.709 456.732 C 1444.483 465.269, 1442.929 469.051, 1436.700 473.789 C 1426.181 481.789, 1403.028 485.779, 1386.072 482.514 C 1381.391 481.612, 1371.191 477.579, 1365.201 474.262 C 1358.773 470.702, 1354.833 467.264, 1349.500 460.566 C 1347.850 458.493, 1345.297 455.493, 1343.827 453.899 L 1341.154 451 1309.702 451 C 1292.403 451, 1276.844 451.281, 1275.125 451.625 C 1271.184 452.413, 1271.077 454.503, 1274.509 463.621 C 1282.443 484.698, 1298.155 504.139, 1318.458 518 C 1320.472 519.375, 1322.655 520.950, 1323.310 521.500 C 1326.321 524.030, 1343.730 530.828, 1354.230 533.575 C 1363.296 535.946, 1388.103 539.155, 1398 539.237 C 1412.785 539.359, 1436.785 536.215, 1450.500 532.360 C 1461.285 529.328, 1475.990 522.304, 1484.387 516.173 C 1491.275 511.145, 1505 497.383, 1505 495.505 C 1505 494.829, 1506.332 492.599, 1507.960 490.550 C 1509.589 488.501, 1511.217 485.851, 1511.580 484.662 C 1511.942 483.473, 1513.148 480.475, 1514.261 478 C 1517.116 471.647, 1517.748 453.715, 1515.562 441.051 C 1512.129 421.156, 1499.340 405.586, 1476.541 393.543 C 1466.612 388.297, 1444.759 381.275, 1434.336 379.980 C 1429.503 379.379, 1425.267 378.432, 1424.923 377.875 C 1424.579 377.318, 1422.318 376.646, 1419.898 376.382 C 1417.479 376.118, 1413.967 375.491, 1412.094 374.989 C 1410.220 374.486, 1408.329 374.297, 1407.890 374.568 C 1406.782 375.253, 1401.917 373.944, 1402.438 373.101 C 1402.671 372.724, 1401.430 372.318, 1399.681 372.199 C 1394.406 371.841, 1386.073 369.927, 1385.458 368.933 C 1385.141 368.420, 1383.810 368, 1382.500 368 C 1381.190 368, 1379.840 367.550, 1379.500 367 C 1379.160 366.450, 1378.185 366, 1377.334 366 C 1374.433 366, 1363.141 359.970, 1359.596 356.528 C 1357.653 354.640, 1355.790 352.010, 1355.456 350.682 C 1353.846 344.267, 1360.106 334.134, 1368.432 329.678 C 1372.250 327.634, 1373.762 327.505, 1393 327.589 L 1413.500 327.678 1421 330.950 C 1429.616 334.708, 1438.141 341.274, 1441.870 347.026 L 1444.447 351 1475.973 351.118 C 1493.313 351.184, 1508.175 351.139, 1509 351.019 C 1511.482 350.657, 1512.125 348.767, 1511.628 343.297 C 1510.700 333.101, 1503.371 319.883, 1491.739 307.428 C 1480.274 295.151, 1465.063 284.953, 1451 280.115 C 1447.425 278.885, 1443.600 277.487, 1442.500 277.008 C 1441.400 276.528, 1439.150 275.922, 1437.500 275.660 C 1435.850 275.398, 1431.800 274.514, 1428.500 273.696 C 1422.785 272.279, 1412.365 271.388, 1392.500 270.617 C 1387.550 270.425, 1377.650 270.857, 1370.500 271.577 M 1829.715 270.571 C 1829.597 270.664, 1825.802 271.026, 1821.283 271.377 C 1808.243 272.387, 1788.592 277.496, 1776.114 283.120 C 1753.648 293.245, 1734.972 308.652, 1718.415 330.721 C 1713.985 336.625, 1705.484 354.271, 1701.176 366.500 C 1695.961 381.308, 1694.763 415.482, 1698.850 432.854 C 1702.463 448.209, 1711.285 469.285, 1716.126 474.126 C 1717.157 475.157, 1718.005 476.562, 1718.011 477.250 C 1718.016 477.938, 1721.191 481.875, 1725.065 486 C 1728.939 490.125, 1732.929 494.765, 1733.931 496.312 C 1736.644 500.498, 1752.121 512.578, 1762 518.221 C 1782.266 529.796, 1793.940 533.929, 1818 538.047 C 1824.827 539.216, 1859.500 539.134, 1859.500 537.949 C 1859.500 537.837, 1860.472 537.641, 1861.659 537.513 C 1869.868 536.633, 1874.878 535.656, 1880.761 533.789 C 1884.467 532.613, 1888.156 531.530, 1888.958 531.383 C 1889.761 531.236, 1892.236 530.369, 1894.458 529.456 C 1917.027 520.188, 1932.186 510.195, 1947.355 494.584 C 1953.923 487.824, 1963.430 475.302, 1964.880 471.500 C 1965.089 470.950, 1965.794 469.825, 1966.446 469 C 1968.436 466.481, 1975.796 448.927, 1978 441.441 C 1982.986 424.508, 1985.303 394.480, 1981.937 390.424 C 1981.299 389.655, 1981.056 388.297, 1981.397 387.407 C 1982.237 385.219, 1979.376 371.107, 1976.348 362.500 C 1973.118 353.319, 1965.948 339.353, 1959.661 330 C 1952.563 319.439, 1936.307 303.391, 1925.819 296.592 C 1914.345 289.153, 1894.454 279.582, 1886.154 277.505 C 1882.494 276.590, 1876.575 274.999, 1873 273.971 C 1869.425 272.942, 1861.325 271.818, 1855 271.473 C 1841.613 270.744, 1830.023 270.330, 1829.715 270.571 M 828.500 271.644 C 817.467 273.412, 801.176 280.090, 790.947 287.036 C 782.553 292.737, 771.242 303.605, 768.875 308.245 C 766.915 312.087, 764.547 313.881, 763.207 312.539 C 762.818 312.149, 762.500 305.166, 762.500 297.021 C 762.500 284.059, 762.271 281.959, 760.665 280.183 C 758.898 278.230, 757.655 278.151, 727.165 278.072 C 708.292 278.023, 694.894 278.381, 694 278.958 C 692.682 279.809, 692.470 295.015, 692.254 404.213 C 692.119 472.571, 692.344 529.004, 692.754 529.620 C 693.608 530.902, 741.330 532.199, 753.578 531.273 L 761.001 530.711 761.967 527.106 C 762.541 524.965, 762.959 496.075, 762.995 456 C 763.029 418.875, 763.472 385.599, 763.980 382.052 C 765.976 368.121, 771.571 357.636, 783.228 345.978 C 788.612 340.595, 792.210 338.018, 798.393 335.121 C 808.829 330.230, 820.547 327.599, 828.502 328.360 C 831.801 328.676, 835.737 328.942, 837.250 328.951 C 838.763 328.961, 840 329.330, 840 329.771 C 840 330.213, 840.926 330.644, 842.059 330.729 C 843.191 330.815, 847.353 332.490, 851.309 334.452 C 867.534 342.501, 876.209 356.165, 878.939 377.974 C 879.598 383.239, 880 413.599, 880 458.165 C 880 497.609, 880.337 530.089, 880.750 530.343 C 881.163 530.596, 896.483 530.954, 914.796 531.137 C 943.375 531.422, 948.236 531.259, 949.109 529.985 C 950.391 528.113, 949.397 362.212, 948.033 350.269 C 946.096 333.322, 939.098 316.475, 928.689 303.702 C 925.492 299.779, 921.949 295.880, 920.815 295.035 C 919.681 294.191, 917.121 292.134, 915.126 290.465 C 911.416 287.359, 903.445 282, 902.537 282 C 902.259 282, 899.245 280.650, 895.839 279 C 892.432 277.350, 888.938 275.989, 888.073 275.975 C 887.208 275.962, 883.800 275.029, 880.500 273.903 C 875.351 272.146, 871.451 271.807, 853 271.509 C 841.175 271.319, 830.150 271.380, 828.500 271.644 M 1082.500 272.586 C 1064.808 275.800, 1046.839 283.305, 1029.941 294.539 C 1015.703 304.005, 997.294 323.945, 990 337.801 C 988.625 340.413, 986.715 343.649, 985.755 344.990 C 984.796 346.332, 982.819 350.596, 981.362 354.465 C 979.905 358.334, 978.380 361.950, 977.972 362.500 C 977.380 363.299, 976.333 366.917, 975.512 371 C 975.457 371.275, 974.757 374.650, 973.956 378.500 C 972.954 383.317, 972.503 391.892, 972.509 406 C 972.518 425.329, 972.677 427.069, 975.292 436.463 C 976.818 441.942, 978.726 447.749, 979.533 449.366 C 980.340 450.984, 981 452.837, 981 453.484 C 981 454.792, 989.088 471.020, 991.781 475.114 C 998.477 485.297, 1003.222 491.100, 1011.682 499.450 C 1017.003 504.702, 1021.914 509, 1022.595 509 C 1023.276 509, 1023.983 509.337, 1024.167 509.750 C 1024.718 510.990, 1032.159 516.314, 1037.496 519.287 C 1051.272 526.959, 1061.114 530.863, 1080 536.146 C 1092.147 539.544, 1129 540.742, 1129 537.738 C 1129 537.319, 1131.138 537.133, 1133.750 537.325 C 1136.362 537.516, 1139.508 537.310, 1140.739 536.865 C 1141.970 536.421, 1145.345 535.811, 1148.239 535.509 C 1154.252 534.882, 1169.530 530.370, 1172.473 528.353 C 1173.557 527.609, 1175.089 527, 1175.876 527 C 1177.917 527, 1187.756 522.236, 1192.680 518.863 C 1194.979 517.288, 1197.097 516, 1197.386 516 C 1198.609 516, 1205.480 510.750, 1212.611 504.368 C 1231.801 487.193, 1248.160 460.033, 1243.658 452.823 C 1242.592 451.117, 1240.335 451, 1208.459 451 C 1173.213 451, 1169.688 451.366, 1168.460 455.158 C 1168.165 456.069, 1167.266 457.068, 1166.462 457.376 C 1165.658 457.685, 1165 458.542, 1165 459.282 C 1165 464.106, 1145.658 474.795, 1130 478.624 C 1122.489 480.461, 1098.842 480.456, 1094.651 478.617 C 1092.918 477.857, 1089.997 476.660, 1088.159 475.958 C 1078.982 472.453, 1066.535 462.054, 1058.209 450.938 C 1051.687 442.229, 1043.394 422.273, 1045.445 420.221 C 1045.842 419.825, 1091.820 419.373, 1147.620 419.218 L 1249.074 418.936 1250.004 416.491 C 1251.308 413.059, 1250.485 391.362, 1248.616 379.917 C 1244.241 353.133, 1231.170 327.868, 1212.004 309.147 C 1206.172 303.450, 1197.308 296.207, 1192.855 293.500 C 1185.649 289.119, 1173.377 282.721, 1168 280.543 C 1164.425 279.095, 1160.600 277.541, 1159.500 277.090 C 1155.596 275.487, 1143.412 272.659, 1137.500 271.982 C 1125.999 270.666, 1090.953 271.050, 1082.500 272.586 M 2134 273.484 C 2122.230 276.755, 2121.404 277.065, 2113.500 281.182 C 2101.779 287.288, 2090.946 296.090, 2083.500 305.558 C 2081.850 307.656, 2079.751 310.301, 2078.836 311.436 C 2077.921 312.571, 2076.796 313.126, 2076.336 312.669 C 2075.876 312.213, 2075.357 304.451, 2075.183 295.422 C 2074.875 279.505, 2074.799 278.988, 2072.683 278.459 C 2069.214 277.592, 2006.254 278.410, 2005.332 279.333 C 2004.098 280.569, 2004.265 528.666, 2005.500 529.895 C 2006.661 531.049, 2072.018 531.725, 2073.837 530.601 C 2074.700 530.068, 2075.014 514.085, 2075.055 468.691 C 2075.130 384.412, 2075.831 375.562, 2083.429 363 C 2084.593 361.075, 2086.210 358.168, 2087.023 356.540 C 2089.837 350.901, 2102.361 339.597, 2110.141 335.673 C 2127.392 326.971, 2153.589 326.756, 2166.154 335.214 C 2167.614 336.196, 2169.190 337, 2169.656 337 C 2170.121 337, 2173.044 339.384, 2176.150 342.298 C 2180.141 346.042, 2182.708 349.606, 2184.905 354.451 C 2191.828 369.719, 2191.371 363.516, 2191.963 450.201 C 2192.307 500.638, 2192.859 529.249, 2193.500 529.869 C 2194.089 530.438, 2208.011 530.969, 2227.337 531.159 C 2259.164 531.472, 2260.219 531.421, 2261.632 529.491 C 2262.889 527.775, 2263.042 515.701, 2262.745 442 C 2262.438 365.944, 2262.207 355.451, 2260.656 347 C 2254.760 314.885, 2238.260 292.788, 2210.619 279.988 C 2195.380 272.931, 2184.862 271.124, 2159 271.123 C 2144.720 271.122, 2141.357 271.439, 2134 273.484 M 2400 271.619 C 2379.366 275.519, 2361.275 282.525, 2346 292.533 C 2326.354 305.403, 2308.264 325.527, 2298.064 345.854 C 2287.716 366.480, 2284.461 380.990, 2284.575 406 C 2284.635 419.220, 2285.079 424.324, 2286.810 431.673 C 2289.114 441.454, 2292.204 450.818, 2294.559 455.154 C 2295.351 456.614, 2296 458.472, 2296 459.282 C 2296 460.092, 2296.631 461.279, 2297.402 461.919 C 2298.173 462.558, 2299.099 464.258, 2299.459 465.695 C 2299.820 467.131, 2301.439 470.232, 2303.058 472.584 C 2304.676 474.936, 2306 477.254, 2306 477.736 C 2306 480.520, 2325.819 502.092, 2331.239 505.207 C 2333.296 506.389, 2335.213 508.063, 2335.499 508.928 C 2336.040 510.558, 2345.208 517, 2346.988 517 C 2347.545 517, 2348 517.427, 2348 517.949 C 2348 519.927, 2372.525 530.772, 2383 533.426 C 2388.775 534.890, 2394.914 536.529, 2396.642 537.069 C 2403.459 539.200, 2426.647 540.260, 2438.729 538.992 C 2447.621 538.059, 2448.441 537.946, 2460 536.050 C 2467.720 534.785, 2479.115 531.424, 2484 528.971 C 2485.925 528.005, 2487.725 527.203, 2488 527.189 C 2490.031 527.086, 2494 525.638, 2494 525 C 2494 524.569, 2495.050 523.953, 2496.333 523.631 C 2497.617 523.309, 2500.800 521.798, 2503.407 520.273 C 2506.014 518.748, 2509.032 516.999, 2510.115 516.387 C 2511.197 515.775, 2516.319 511.789, 2521.496 507.529 C 2534.805 496.579, 2544.466 484.357, 2553.364 467.216 C 2558.010 458.266, 2558.625 455.348, 2556.387 452.875 C 2554.790 451.110, 2552.652 451, 2520.020 451 C 2488.259 451, 2485.220 451.147, 2483.796 452.750 C 2471.050 467.106, 2464.385 471.703, 2448.500 477.098 C 2442.358 479.184, 2439.662 479.475, 2426.500 479.477 C 2418.250 479.477, 2410.150 479.189, 2408.500 478.837 C 2406.850 478.484, 2401.714 476.277, 2397.088 473.932 C 2387.546 469.097, 2374.798 457.412, 2368.753 447.962 C 2363.894 440.366, 2359.067 428.631, 2358.759 423.666 L 2358.500 419.500 2459.889 419.311 C 2532.712 419.175, 2561.591 418.808, 2562.389 418.010 C 2563.107 417.291, 2563.459 412.057, 2563.385 403.199 C 2563.065 365.091, 2548.989 332.279, 2522.001 306.734 C 2512.527 297.767, 2506.927 293.683, 2495.421 287.350 C 2486.830 282.622, 2470.187 276, 2466.894 276 C 2465.367 276, 2463.840 275.550, 2463.500 275 C 2463.160 274.450, 2461.874 274, 2460.641 274 C 2459.408 274, 2457.870 273.470, 2457.223 272.823 C 2456.038 271.638, 2405.523 270.575, 2400 271.619 M 527.765 328.550 C 527.619 328.685, 524.575 329.041, 521 329.340 C 517.425 329.640, 513.029 330.332, 511.232 330.878 C 509.434 331.424, 507.727 331.853, 507.439 331.832 C 506.012 331.726, 492.054 337.845, 491 339.039 C 490.725 339.351, 488.925 340.567, 487 341.743 C 485.075 342.918, 480.280 347.260, 476.345 351.392 C 468.110 360.038, 464.753 366.403, 459.913 382.543 C 457.110 391.890, 456.625 395.043, 456.614 404 C 456.586 426.894, 465.628 448.235, 481.527 462.804 C 487.944 468.684, 500.337 476, 503.880 476 C 504.826 476, 506.028 476.402, 506.550 476.893 C 509.959 480.099, 537.667 481.258, 543.147 478.424 C 544.824 477.557, 547.070 476.679, 548.139 476.473 C 549.207 476.268, 554.348 473.743, 559.562 470.862 C 566.580 466.986, 570.607 463.920, 575.064 459.063 C 583.335 450.047, 584 449.196, 584 447.622 C 584 446.865, 584.658 445.699, 585.461 445.032 C 586.265 444.365, 587.219 442.848, 587.580 441.660 C 587.942 440.472, 589.063 437.660, 590.070 435.412 C 596.079 422.005, 597.401 397.879, 593.053 381 C 591.707 375.775, 590.073 371.050, 589.423 370.500 C 588.772 369.950, 587.943 368.224, 587.579 366.664 C 587.216 365.105, 586.482 363.305, 585.948 362.664 C 584.646 361.104, 580.082 354.912, 577 350.523 C 571.502 342.694, 553.608 332.921, 540 330.314 C 534.368 329.235, 528.013 328.319, 527.765 328.550 M 2418 328.678 C 2415.525 328.881, 2412.600 329.414, 2411.500 329.862 C 2410.400 330.310, 2406.350 331.695, 2402.500 332.940 C 2398.650 334.185, 2392.821 336.845, 2389.546 338.852 C 2382.036 343.454, 2367.616 357.557, 2368.381 359.552 C 2368.708 360.404, 2367.923 361.659, 2366.468 362.613 C 2364.854 363.670, 2364 365.163, 2364 366.926 C 2364 368.409, 2363.190 370.495, 2362.200 371.561 C 2359.021 374.984, 2358.867 376.750, 2361.686 377.457 C 2365.580 378.435, 2483.162 377.889, 2485.813 376.881 C 2487.638 376.187, 2487.990 375.517, 2487.458 373.749 C 2485.853 368.416, 2480.700 358.854, 2476.552 353.513 C 2471.936 347.567, 2459.056 336.965, 2453.592 334.612 C 2446.607 331.605, 2444.720 330.947, 2444.296 331.371 C 2444.050 331.616, 2442.421 331.387, 2440.675 330.861 C 2438.929 330.335, 2435.700 329.722, 2433.500 329.497 C 2431.300 329.273, 2427.925 328.914, 2426 328.699 C 2424.075 328.485, 2420.475 328.475, 2418 328.678 M 1099 330.516 C 1085.679 333.238, 1076.306 337.912, 1067.332 346.306 C 1057.498 355.505, 1048 369.810, 1048 375.421 L 1048 378.033 1111.003 377.916 C 1145.960 377.852, 1174.247 377.409, 1174.548 376.922 C 1174.847 376.439, 1173.158 371.454, 1170.796 365.846 C 1166.965 356.751, 1165.677 354.824, 1158.894 348.034 C 1143.340 332.465, 1121.181 325.984, 1099 330.516 M 1826 330.107 C 1800.068 337.580, 1787.941 347.574, 1777.008 370.483 C 1769.550 386.109, 1767.297 404.213, 1770.906 419.500 C 1773.306 429.663, 1778.480 443.324, 1780.595 445.079 C 1781.368 445.720, 1782.004 446.752, 1782.008 447.372 C 1782.012 447.993, 1784.375 451.532, 1787.258 455.237 C 1795.914 466.362, 1807.771 474.023, 1822.653 478.106 C 1829.114 479.878, 1832.368 480.162, 1842.207 479.811 C 1849.491 479.552, 1854.467 478.933, 1855.205 478.195 C 1855.862 477.538, 1857.367 477, 1858.550 477 C 1859.732 477, 1864.697 474.943, 1869.583 472.429 C 1882.451 465.809, 1890.964 458.440, 1895.736 449.791 C 1896.965 447.563, 1898.483 445.123, 1899.108 444.370 C 1899.733 443.616, 1899.954 443, 1899.599 443 C 1899.244 443, 1899.602 441.988, 1900.394 440.750 C 1902.877 436.873, 1906.767 423.850, 1908.037 415.163 C 1910.226 400.185, 1906.971 379.533, 1900.418 366.834 C 1896.984 360.181, 1888.829 349.062, 1885.207 346.097 C 1883.168 344.428, 1880.600 342.223, 1879.500 341.197 C 1877.640 339.463, 1874.167 337.661, 1864.708 333.525 C 1862.622 332.612, 1858.572 331.415, 1855.708 330.865 C 1848.089 329.399, 1830.051 328.939, 1826 330.107" stroke="none" fill="#050404" fill-rule="evenodd"/></svg>