<svg width="334" height="56" viewBox="0 0 334 56" fill="none"
  xmlns="http://www.w3.org/2000/svg">
  <path d="M80.4182 50.825H89.2631V36.9679H96.6929L103.651 50.825H113.439L105.302 34.9041C109.606 32.8403 112.378 28.5947 112.378 23.2878C112.378 14.9146 106.304 9.54863 97.2236 9.54863H80.4182V50.825ZM96.516 16.9194C100.703 16.9194 103.356 19.396 103.356 23.2878C103.356 27.1206 100.703 29.5971 96.516 29.5971H89.2631V16.9194H96.516Z" fill="currentColor"/>
  <path d="M130.848 51.1788C140.519 51.1788 146.828 45.0463 146.828 35.6707C146.828 26.354 140.519 20.1625 130.848 20.1625C121.178 20.1625 114.868 26.354 114.868 35.6707C114.868 44.9873 121.178 51.1788 130.848 51.1788ZM130.848 44.3977C126.19 44.3977 123.359 40.8007 123.359 35.6707C123.359 30.5406 126.19 26.9437 130.848 26.9437C135.506 26.9437 138.396 30.5406 138.396 35.6707C138.396 40.8007 135.506 44.3977 130.848 44.3977Z" fill="currentColor"/>
  <path d="M151.404 50.825H159.719V9.54863H151.404V50.825Z" fill="currentColor"/>
  <path d="M180.49 51.1788C188.568 51.1788 193.816 46.4615 194.76 40.5649H186.563C185.856 43.3952 183.497 44.8694 180.136 44.8694C175.949 44.8694 173.178 42.2749 173.001 37.9703V37.5576H194.996C195.172 36.6141 195.231 35.6117 195.231 34.7272C195.113 25.8233 188.981 20.1625 179.9 20.1625C170.525 20.1625 164.333 26.295 164.333 35.7296C164.333 45.1053 170.407 51.1788 180.49 51.1788ZM173.178 32.1327C173.65 28.5357 176.362 26.354 179.959 26.354C183.733 26.354 186.269 28.4178 186.858 32.1327H173.178Z" fill="currentColor"/>
  <path d="M217.229 20.1625C213.042 20.1625 210.094 21.9315 208.089 24.3491V9.54863H199.775V50.825H207.028L207.853 46.6973C209.799 49.2919 212.807 51.1788 217.17 51.1788C225.366 51.1788 231.263 44.9873 231.263 35.6117C231.263 26.0002 225.366 20.1625 217.229 20.1625ZM215.342 44.3977C210.802 44.3977 207.971 40.8007 207.971 35.6117C207.971 30.4816 210.802 26.9437 215.342 26.9437C219.882 26.9437 222.831 30.4816 222.831 35.6707C222.831 40.8597 219.882 44.3977 215.342 44.3977Z" fill="currentColor"/>
  <path d="M264.774 43.808C263.476 43.808 262.828 43.5132 262.828 41.9211V31.1892C262.828 23.9364 257.934 20.1625 249.443 20.1625C241.423 20.1625 235.998 24.0543 235.409 29.9509H243.428C243.782 27.7102 245.964 26.2361 249.207 26.2361C252.686 26.2361 254.632 28.0051 254.632 30.7175V32.1917H248.617C239.536 32.1917 234.701 35.8476 234.701 42.2749C234.701 48.0536 239.418 51.1788 245.964 51.1788C250.681 51.1788 253.747 49.2329 255.87 45.8718C255.811 48.7612 257.167 50.825 261.472 50.825H265.717V43.808H264.774ZM254.632 38.3241C254.573 42.4518 251.919 45.1642 247.556 45.1642C244.784 45.1642 243.074 43.808 243.074 41.6852C243.074 39.1497 245.079 37.7345 248.558 37.7345H254.632V38.3241Z" fill="currentColor"/>
  <path d="M267.518 40.7418C267.872 47.228 273.592 51.1788 282.024 51.1788C290.161 51.1788 295.822 47.346 295.822 41.3314C295.822 34.4913 290.044 32.8992 283.086 32.1917C278.722 31.661 276.128 31.4251 276.128 29.1254C276.128 27.1795 278.25 26.0002 281.493 26.0002C284.854 26.0002 287.154 27.4744 287.39 29.892H295.35C294.938 23.7005 289.336 20.1036 281.199 20.1036C273.415 20.0446 268.167 23.9954 268.167 30.0099C268.167 36.2603 273.651 37.8524 280.727 38.6779C285.621 39.3266 287.685 39.5035 287.685 41.98C287.685 44.1028 285.562 45.2232 282.083 45.2232C278.014 45.2232 275.715 43.3952 275.42 40.7418H267.518Z" fill="currentColor"/>
  <path d="M315.179 51.1788C323.258 51.1788 328.506 46.4615 329.449 40.5649H321.253C320.545 43.3952 318.187 44.8694 314.825 44.8694C310.639 44.8694 307.867 42.2749 307.691 37.9703V37.5576H329.685C329.862 36.6141 329.921 35.6117 329.921 34.7272C329.803 25.8233 323.67 20.1625 314.59 20.1625C305.214 20.1625 299.023 26.295 299.023 35.7296C299.023 45.1053 305.096 51.1788 315.179 51.1788ZM307.867 32.1327C308.339 28.5357 311.052 26.354 314.649 26.354C318.422 26.354 320.958 28.4178 321.548 32.1327H307.867Z" fill="currentColor"/>
  <path d="M4.12853 44.7493L4.12402 44.6797V30.8637H62.124V44.6796L62.1195 44.7493C62.0576 45.705 61.3415 46.7168 59.8641 47.7143C58.4021 48.7014 56.2888 49.6077 53.653 50.3759C48.3869 51.9105 41.1395 52.8637 33.124 52.8637C25.1085 52.8637 17.8611 51.9105 12.5951 50.3759C9.95924 49.6077 7.84596 48.7014 6.38395 47.7143C4.90653 46.7168 4.19048 45.705 4.12853 44.7493Z" fill="#000" stroke="#000"/>
  <path d="M4.12853 44.7493L4.12402 44.6797V31.0326H62.124V44.6797L62.1195 44.7493C62.0576 45.705 61.3415 46.7168 59.8641 47.7143C58.4021 48.7014 56.2888 49.6077 53.653 50.3759C48.3869 51.9105 41.1395 52.8637 33.124 52.8637C25.1085 52.8637 17.8611 51.9105 12.5951 50.3759C9.95924 49.6077 7.84596 48.7014 6.38395 47.7143C4.90653 46.7168 4.19048 45.705 4.12853 44.7493Z" fill="#D3A7E4" stroke="#000"/>
  <path d="M62.124 30.3637C62.124 31.3678 61.4554 32.4212 60.0133 33.4614C58.5827 34.4932 56.4805 35.4432 53.8378 36.2494C48.5585 37.86 41.235 38.8637 33.124 38.8637C25.0131 38.8637 17.6896 37.86 12.4103 36.2494C9.76753 35.4432 7.66529 34.4932 6.23478 33.4614C4.79265 32.4212 4.12402 31.3678 4.12402 30.3637C4.12402 29.3596 4.79265 28.3062 6.23478 27.266C7.66529 26.2342 9.76753 25.2842 12.4103 24.478C17.6896 22.8673 25.0131 21.8637 33.124 21.8637C41.235 21.8637 48.5585 22.8673 53.8378 24.478C56.4805 25.2842 58.5827 26.2342 60.0133 27.266C61.4554 28.3062 62.124 29.3596 62.124 30.3637Z" fill="white" stroke="#000"/>
  <path d="M62.124 30.3637C62.124 31.3678 61.4554 32.4212 60.0133 33.4614C58.5827 34.4932 56.4805 35.4432 53.8378 36.2494C48.5585 37.86 41.235 38.8637 33.124 38.8637C25.0131 38.8637 17.6896 37.86 12.4103 36.2494C9.76753 35.4432 7.66529 34.4932 6.23478 33.4614C4.79265 32.4212 4.12402 31.3678 4.12402 30.3637C4.12402 29.3596 4.79265 28.3062 6.23478 27.266C7.66529 26.2342 9.76753 25.2842 12.4103 24.478C17.6896 22.8673 25.0131 21.8637 33.124 21.8637C41.235 21.8637 48.5585 22.8673 53.8378 24.478C56.4805 25.2842 58.5827 26.2342 60.0133 27.266C61.4554 28.3062 62.124 29.3596 62.124 30.3637Z" fill="white" stroke="#000"/>
  <path d="M14.5904 28.9871L14.5872 28.9404L14.5872 19.5497H58.5872L58.5872 28.9404L58.5841 28.9871C58.5414 29.6264 58.0413 30.3436 56.9218 31.0761C55.8205 31.7966 54.2209 32.4628 52.2157 33.029C48.2112 34.1599 42.6938 34.8638 36.5873 34.8638C30.4807 34.8638 24.9633 34.1599 20.9588 33.029C18.9536 32.4628 17.3539 31.7966 16.2526 31.0761C15.1332 30.3436 14.6331 29.6264 14.5904 28.9871Z" fill="#FAA68C" stroke="#000"/>
  <path d="M58.5872 18.8637C58.5872 19.51 58.1302 20.2342 57.037 20.9809C55.9602 21.7164 54.3692 22.3986 52.3583 22.9795C48.3432 24.1395 42.7671 24.8637 36.5872 24.8637C30.4072 24.8637 24.8311 24.1395 20.816 22.9795C18.8051 22.3986 17.2141 21.7164 16.1373 20.9809C15.0441 20.2342 14.5872 19.51 14.5872 18.8637C14.5872 18.2174 15.0441 17.4932 16.1373 16.7465C17.2141 16.011 18.8051 15.3288 20.816 14.7479C24.8311 13.5879 30.4072 12.8637 36.5872 12.8637C42.7671 12.8637 48.3432 13.5879 52.3583 14.7479C54.3692 15.3288 55.9602 16.011 57.037 16.7465C58.1302 17.4932 58.5872 18.2174 58.5872 18.8637Z" fill="white" stroke="#000"/>
  <path d="M17.7552 17.4034L17.7537 17.3827V8.49309H47.7537V17.3827L47.7521 17.4034C47.7311 17.6854 47.469 18.0862 46.6973 18.5395C45.9552 18.9754 44.8671 19.3836 43.4907 19.7326C40.7444 20.4289 36.9537 20.8637 32.7537 20.8637C28.5536 20.8637 24.763 20.4289 22.0167 19.7326C20.6402 19.3836 19.5521 18.9754 18.81 18.5395C18.0384 18.0862 17.7762 17.6854 17.7552 17.4034Z" fill="#FDED99" stroke="#000"/>
  <path d="M47.7537 7.86369C47.7537 8.23501 47.4911 8.69619 46.7526 9.20306C46.0301 9.69902 44.9518 10.1656 43.5744 10.5655C40.8263 11.3633 37.0004 11.8637 32.7537 11.8637C28.5069 11.8637 24.681 11.3633 21.9329 10.5655C20.5555 10.1656 19.4772 9.69902 18.7547 9.20306C18.0162 8.69619 17.7537 8.23501 17.7537 7.86369C17.7537 7.49237 18.0162 7.0312 18.7547 6.52432C19.4772 6.02837 20.5555 5.56178 21.9329 5.16189C24.681 4.36404 28.5069 3.86369 32.7537 3.86369C37.0004 3.86369 40.8263 4.36404 43.5744 5.16189C44.9518 5.56178 46.0301 6.02837 46.7526 6.52432C47.4911 7.0312 47.7537 7.49237 47.7537 7.86369Z" fill="white" stroke="#000"/>
  <path d="M47.0947 34.1597V24.4334C51.3974 23.3991 53.8517 22.5524 58.3599 20.3089V30.0351C54.7384 32.3461 52.1875 33.1727 47.0947 34.1597Z" fill="#0E0D0F"/>
  <path d="M46.0581 52.0196V38.2692C52.1409 36.8071 55.6106 35.6101 61.9841 32.4383V46.1886C56.8642 49.4556 53.2579 50.6244 46.0581 52.0196Z" fill="#0E0D0F"/>
  <path d="M39.7423 20.1779V11.6616C43.7014 10.7664 44.3706 10.5923 47.6343 8.61452V17.1309C45.9785 19.6404 44.6568 19.5575 39.7423 20.1779Z" fill="#0E0D0F"/>
</svg>
