<svg width="102" height="40" fill="none" xmlns="http://www.w3.org/2000/svg"><path d="M0 1.576C0 .986.478.508 1.068.508h27.43c.589 0 1.067.478 1.067 1.068v27.429c0 .59-.478 1.068-1.068 1.068H1.068c-.59 0-1.068-.478-1.068-1.068V1.575Z" fill="#141111"/><path d="M2.112 3.688c0-.59.478-1.068 1.068-1.068h23.205c.59 0 1.07.48 1.046 1.069-.545 13.145-11.105 23.705-24.25 24.25a1.035 1.035 0 0 1-1.07-1.046V3.688Z" fill="#fff"/><path d="M3.75 5.327c0-.59.479-1.068 1.069-1.068h2.276c.59 0 1.069.478 1.069 1.068v2.276c0 .59-.479 1.068-1.069 1.068H4.82c-.59 0-1.068-.478-1.068-1.068V5.327ZM56.607 29.88H51l-4.353-7.444-2.779 3.308v4.136h-4.842V.508h4.842v17.729l7.399-9.185h5.607l-6.913 9.462 6.646 11.366ZM73.162 9.052h5.073l-10.961 30.44h-5.575l4.027-10.34-7.25-20.1h5.34l4.331 13.485 5.015-13.485Zm12.684 30.44h-4.842V9.052h4.842v2.808a7.806 7.806 0 0 1 2.381-2.18c.953-.567 2.064-.85 3.334-.85 1.456 0 2.812.27 4.069.811a10.395 10.395 0 0 1 3.314 2.258 10.104 10.104 0 0 1 2.242 3.309c.543 1.254.814 2.601.814 4.04 0 1.44-.271 2.793-.814 4.061a10.273 10.273 0 0 1-2.242 3.348 10.556 10.556 0 0 1-3.314 2.238c-1.257.542-2.613.813-4.069.813-1.27 0-2.381-.278-3.334-.832a8.041 8.041 0 0 1-2.381-2.2v12.816Zm5.656-26.008c-1.006 0-1.905.264-2.7.793a5.357 5.357 0 0 0-1.865 2.08c-.45.871-.674 1.835-.674 2.892 0 1.056.225 2.027.674 2.911a5.51 5.51 0 0 0 1.866 2.1c.794.515 1.693.773 2.699.773a5.282 5.282 0 0 0 2.798-.773 5.762 5.762 0 0 0 2.024-2.08c.503-.885.754-1.862.754-2.931 0-1.057-.251-2.021-.754-2.893a5.762 5.762 0 0 0-2.024-2.08c-.834-.528-1.766-.792-2.798-.792Z" fill="#141111"/></svg>
