<?xml version="1.0" standalone="no"?>
<!DOCTYPE svg PUBLIC "-//W3C//DTD SVG 20010904//EN"
 "http://www.w3.org/TR/2001/REC-SVG-20010904/DTD/svg10.dtd">
<svg version="1.0" xmlns="http://www.w3.org/2000/svg"
 width="172.000000pt" height="70.000000pt" viewBox="0 0 172.000000 70.000000"
 preserveAspectRatio="xMidYMid meet">

<g transform="translate(0.000000,70.000000) scale(0.100000,-0.100000)"
fill="#000000" stroke="none">
<path d="M50 690 c0 -6 -11 -10 -25 -10 -25 0 -25 -1 -25 -90 l0 -90 85 0 85
0 0 85 c0 84 0 85 -25 85 -14 0 -25 6 -25 13 0 9 -13 14 -35 15 -19 1 -35 -3
-35 -8z"/>
<path d="M1557 544 c-4 -4 -7 -16 -7 -26 0 -13 7 -18 26 -18 21 0 25 4 22 22
-3 23 -27 35 -41 22z m27 -25 c-3 -5 -10 -7 -15 -3 -5 3 -7 10 -3 15 3 5 10 7
15 3 5 -3 7 -10 3 -15z"/>
<path d="M354 525 c-4 -8 -17 -15 -30 -15 -23 0 -24 -3 -24 -75 0 -60 -3 -75
-15 -75 -8 0 -15 5 -15 10 0 6 -15 10 -34 10 -19 0 -38 -4 -41 -10 -3 -5 -15
-10 -26 -10 -17 0 -19 -7 -19 -80 0 -62 -3 -80 -14 -80 -8 0 -16 7 -20 15 -7
20 -65 20 -72 0 -4 -8 -15 -15 -25 -15 -17 0 -19 -8 -19 -85 l0 -85 240 0 240
0 0 240 0 240 -24 0 c-13 0 -26 7 -30 15 -3 9 -18 15 -36 15 -18 0 -33 -6 -36
-15z m96 -105 l0 -60 -65 0 -65 0 0 60 0 60 65 0 65 0 0 -60z m-150 -155 l0
-65 -65 0 -65 0 0 65 0 65 65 0 65 0 0 -65z m0 -150 l0 -65 -65 0 -65 0 0 65
0 65 65 0 65 0 0 -65z m150 0 l0 -65 -65 0 -65 0 0 65 0 65 65 0 65 0 0 -65z"/>
<path d="M970 430 c0 -103 1 -110 20 -110 19 0 20 7 20 110 0 103 -1 110 -20
110 -19 0 -20 -7 -20 -110z"/>
<path d="M1040 431 l0 -111 25 0 26 0 -3 108 c-3 102 -4 107 -25 110 -23 3
-23 2 -23 -107z m40 89 c0 -5 -7 -7 -15 -4 -8 4 -15 8 -15 10 0 2 7 4 15 4 8
0 15 -4 15 -10z"/>
<path d="M1652 528 c-7 -7 -12 -20 -12 -30 0 -10 -7 -18 -15 -18 -8 0 -15 -9
-15 -20 0 -11 7 -20 15 -20 12 0 15 -13 15 -55 0 -48 2 -55 20 -55 18 0 20 7
20 55 0 42 3 55 15 55 8 0 15 9 15 20 0 11 -4 20 -10 20 -5 0 -10 5 -10 10 0
6 7 10 15 10 8 0 15 5 15 11 0 6 -13 8 -31 5 -37 -5 -26 10 11 17 22 4 22 4
-5 6 -17 0 -36 -4 -43 -11z m48 -68 c0 -5 -5 -10 -11 -10 -5 0 -7 5 -4 10 3 6
8 10 11 10 2 0 4 -4 4 -10z m-31 -52 c0 -7 -4 -22 -9 -33 -7 -17 -9 -15 -9 13
-1 17 4 32 9 32 6 0 10 -6 9 -12z"/>
<path d="M1460 500 c0 -11 -7 -20 -15 -20 -8 0 -15 -5 -15 -12 0 -9 -3 -9 -12
0 -7 7 -31 12 -54 12 -34 0 -47 -5 -64 -27 -27 -34 -22 -89 11 -115 28 -24 81
-23 103 1 15 16 15 19 1 31 -12 10 -18 10 -29 1 -11 -9 -20 -10 -35 -1 -42 22
-15 76 32 65 14 -4 28 -2 31 3 3 6 15 8 26 5 17 -5 20 -14 20 -59 0 -49 2 -54
25 -60 36 -9 54 1 48 25 -3 11 -10 19 -17 18 -6 -1 -12 14 -14 36 -2 28 0 37
12 37 9 0 16 9 16 20 0 11 -7 20 -15 20 -8 0 -15 9 -15 20 0 13 -7 20 -20 20
-13 0 -20 -7 -20 -20z m-82 -37 c-10 -2 -26 -2 -35 0 -10 3 -2 5 17 5 19 0 27
-2 18 -5z"/>
<path d="M650 460 c-65 -65 31 -180 105 -126 16 12 17 16 6 30 -9 11 -18 13
-31 6 -25 -13 -53 10 -48 41 3 21 8 24 42 24 24 0 41 5 44 14 12 34 -85 44
-118 11z"/>
<path d="M801 454 c-28 -36 -27 -79 4 -109 30 -31 73 -32 109 -4 21 16 26 29
26 63 0 54 -22 76 -78 76 -32 0 -45 -6 -61 -26z m89 -29 c26 -32 -15 -78 -45
-49 -18 19 -19 36 -3 52 16 16 33 15 48 -3z"/>
<path d="M1130 453 c-24 -31 -22 -85 3 -111 21 -20 88 -26 111 -9 28 20 11 39
-28 32 -23 -5 -36 -2 -45 9 -12 14 -7 16 43 16 52 0 56 2 56 23 0 65 -98 93
-140 40z m83 10 c-7 -2 -19 -2 -25 0 -7 3 -2 5 12 5 14 0 19 -2 13 -5z m7 -34
c0 -5 -15 -9 -32 -9 -31 1 -32 2 -15 15 19 14 47 10 47 -6z"/>
<path d="M1550 405 c0 -73 1 -75 25 -75 24 0 25 2 25 75 0 73 -1 75 -25 75
-24 0 -25 -2 -25 -75z"/>
<path d="M650 270 c0 -18 7 -20 55 -20 48 0 55 2 55 20 0 18 -7 20 -55 20 -48
0 -55 -2 -55 -20z"/>
<path d="M1444 266 c-8 -21 3 -36 27 -36 15 0 20 6 17 22 -4 27 -35 37 -44 14z"/>
<path d="M674 206 c-33 -15 -44 -33 -44 -72 0 -60 53 -94 114 -74 32 10 35 14
25 32 -8 15 -14 17 -22 9 -16 -16 -42 -14 -57 4 -11 13 -5 15 45 15 l57 0 -7
28 c-13 55 -60 80 -111 58z m56 -41 c11 -13 8 -15 -19 -15 -31 0 -42 14 -18
23 20 9 24 8 37 -8z"/>
<path d="M887 213 c-4 -3 -23 -6 -42 -5 l-35 1 0 -74 c0 -68 2 -75 19 -75 17
0 20 8 23 53 3 48 5 52 28 52 23 0 25 -4 28 -52 3 -45 6 -53 23 -53 17 0 19 7
19 70 0 66 -1 71 -26 80 -30 12 -29 12 -37 3z"/>
<path d="M1030 213 c-35 -13 -50 -37 -50 -79 0 -56 37 -89 89 -80 41 6 54 17
45 39 -5 13 -10 14 -25 6 -21 -11 -59 -4 -59 12 0 5 23 9 50 9 46 0 50 2 50
24 0 46 -57 85 -100 69z m37 -61 c-34 -4 -48 5 -27 18 8 5 22 4 34 -3 20 -11
20 -12 -7 -15z"/>
<path d="M1237 213 c-4 -3 -25 -6 -47 -5 l-40 2 0 -75 c0 -73 1 -75 24 -75 23
0 25 4 28 53 3 45 6 52 26 55 16 3 22 10 22 28 0 25 -2 28 -13 17z"/>
<path d="M1564 210 c-97 -39 -47 -178 55 -155 37 8 47 21 30 41 -8 10 -15 12
-23 4 -15 -15 -42 -12 -56 5 -11 13 -5 15 44 15 52 0 56 2 56 24 0 49 -59 86
-106 66z m56 -51 c0 -5 -15 -9 -32 -9 -31 1 -32 2 -15 15 19 14 47 10 47 -6z"/>
<path d="M1275 194 c-9 -9 -15 -33 -15 -58 0 -55 25 -80 74 -74 29 3 33 1 23
-10 -7 -10 -23 -12 -48 -8 -26 4 -38 2 -42 -8 -9 -23 14 -36 63 -36 69 0 80
17 80 122 l0 86 -60 1 c-41 0 -64 -4 -75 -15z m93 -56 c2 -19 -2 -28 -18 -33
-37 -12 -64 27 -38 53 21 21 53 10 56 -20z"/>
<path d="M1440 135 c0 -73 1 -75 25 -75 24 0 25 2 25 75 0 73 -1 75 -25 75
-24 0 -25 -2 -25 -75z"/>
</g>
</svg>
