<?xml version="1.0" standalone="no"?>
<!DOCTYPE svg PUBLIC "-//W3C//DTD SVG 20010904//EN"
 "http://www.w3.org/TR/2001/REC-SVG-20010904/DTD/svg10.dtd">
<svg version="1.0" xmlns="http://www.w3.org/2000/svg"
 width="498.000000pt" height="155.000000pt" viewBox="0 0 498.000000 155.000000"
 preserveAspectRatio="xMidYMid meet">

<g transform="translate(0.000000,155.000000) scale(0.100000,-0.100000)"
fill="#000000" stroke="none">
<path d="M389 1166 l383 -384 -381 -379 c-209 -209 -381 -382 -381 -386 0 -4
367 -7 815 -7 448 0 815 3 815 7 0 4 -172 178 -381 386 l-382 379 384 384 384
384 -820 0 -820 0 384 -384z m761 -761 l315 -315 -640 0 -640 0 315 315 c173
173 319 315 325 315 6 0 152 -142 325 -315z"/>
<path d="M1955 1538 c-31 -18 -44 -40 -44 -73 0 -34 14 -56 46 -73 33 -18 59
-14 89 12 73 63 -8 182 -91 134z"/>
<path d="M2610 1395 c0 -85 -2 -155 -4 -155 -3 0 -16 11 -31 24 -54 50 -187
60 -270 21 -57 -28 -120 -97 -139 -152 -23 -66 -20 -167 5 -223 47 -104 138
-163 254 -163 73 -1 117 14 163 56 l22 20 0 -31 0 -32 65 0 65 0 0 395 0 395
-65 0 -65 0 0 -155z m-79 -228 c49 -32 83 -105 75 -160 -9 -61 -40 -105 -89
-127 -54 -25 -91 -25 -141 0 -114 55 -123 216 -16 287 46 31 124 31 171 0z"/>
<path d="M2957 1295 c-78 -27 -122 -91 -115 -165 9 -91 73 -138 212 -155 76
-9 105 -23 113 -53 8 -35 -35 -72 -83 -72 -42 0 -89 23 -104 50 -9 17 -21 20
-80 20 l-70 0 11 -27 c37 -99 114 -147 239 -147 140 0 225 67 223 176 -1 90
-60 137 -195 157 -98 13 -128 30 -128 71 0 34 23 50 72 50 54 0 78 -11 94 -41
14 -27 18 -29 79 -29 73 0 75 3 46 66 -21 45 -67 85 -120 103 -46 15 -147 13
-194 -4z"/>
<path d="M1920 1030 l0 -270 70 0 70 0 0 270 0 270 -70 0 -70 0 0 -270z"/>
<path d="M3920 655 c0 -85 -3 -155 -6 -155 -3 0 -19 11 -35 25 -80 67 -237 57
-328 -22 -94 -80 -123 -228 -67 -345 71 -150 267 -205 393 -112 40 31 45 30
41 -3 -3 -28 -3 -28 65 -31 l67 -3 0 401 0 400 -65 0 -65 0 0 -155z m-91 -224
c120 -62 110 -243 -16 -297 -122 -52 -253 67 -214 196 31 103 135 149 230 101z"/>
<path d="M4200 797 c-34 -17 -55 -57 -47 -89 20 -79 120 -89 155 -16 17 36 -6
94 -43 108 -33 12 -35 12 -65 -3z"/>
<path d="M2140 554 c-19 -8 -45 -27 -57 -42 l-23 -27 0 38 0 38 -67 -3 -68 -3
0 -270 0 -270 68 -3 67 -3 0 158 c0 87 5 175 10 195 28 101 157 118 189 26 6
-18 11 -107 11 -204 l0 -174 65 0 65 0 0 158 c0 86 5 174 10 194 20 72 103
111 157 73 34 -24 43 -76 43 -257 l0 -168 65 0 65 0 0 205 c0 256 -11 293
-105 336 -77 35 -192 12 -241 -48 l-20 -25 -18 27 c-37 56 -143 80 -216 49z"/>
<path d="M2998 551 c-68 -27 -102 -54 -139 -113 -33 -51 -34 -56 -34 -154 0
-99 1 -102 35 -153 82 -121 237 -163 377 -101 69 30 143 107 143 150 0 6 -28
10 -69 10 -56 0 -73 -4 -83 -18 -27 -38 -61 -52 -124 -52 -53 0 -67 4 -94 26
-30 26 -60 72 -60 94 0 7 73 10 221 10 l222 0 -7 61 c-3 34 -16 82 -28 107
-62 124 -227 185 -360 133z m169 -111 c37 -16 83 -68 83 -92 0 -5 -65 -8 -145
-8 -162 0 -167 3 -118 61 50 59 109 72 180 39z"/>
<path d="M4567 553 c-153 -51 -226 -241 -153 -395 71 -150 267 -205 393 -112
40 31 43 30 43 -6 l0 -31 63 3 62 3 3 273 2 272 -65 0 -65 0 0 -30 c0 -36 -4
-37 -41 -5 -55 46 -153 57 -242 28z m192 -122 c100 -51 115 -189 30 -265 -65
-59 -152 -60 -213 -3 -138 131 14 354 183 268z"/>
<path d="M4170 285 l0 -275 65 0 65 0 0 275 0 275 -65 0 -65 0 0 -275z"/>
</g>
</svg>
