<?xml version="1.0" standalone="no"?>
<!DOCTYPE svg PUBLIC "-//W3C//DTD SVG 20010904//EN"
 "http://www.w3.org/TR/2001/REC-SVG-20010904/DTD/svg10.dtd">
<svg version="1.0" xmlns="http://www.w3.org/2000/svg"
 width="416.000000pt" height="121.000000pt" viewBox="0 0 416.000000 121.000000"
 preserveAspectRatio="xMidYMid meet">

<g transform="translate(0.000000,121.000000) scale(0.100000,-0.100000)"
fill="#000000" stroke="none">
<path d="M1937 1196 c-41 -15 -56 -25 -104 -70 l-33 -30 0 47 0 47 -110 0
-110 0 0 -595 0 -595 120 0 120 0 0 147 0 147 33 -31 c44 -42 69 -53 117 -53
79 0 134 50 166 150 13 44 18 104 22 297 6 327 -11 444 -71 509 -38 40 -92 51
-150 30z m-47 -225 c11 -21 15 -497 4 -525 -8 -21 -60 -21 -68 0 -3 9 -6 129
-6 268 0 183 3 255 12 264 18 18 46 14 58 -7z"/>
<path d="M2619 1201 c-44 -14 -73 -32 -111 -69 l-38 -36 0 47 0 47 -112 0
-113 0 3 -595 2 -595 120 0 120 0 0 147 0 147 33 -31 c44 -42 69 -53 117 -53
82 0 128 43 163 154 21 66 22 89 22 341 -1 282 -8 352 -46 427 -31 61 -97 89
-160 69z m-64 -491 l0 -275 -30 0 -30 0 -3 264 c-2 278 0 295 42 289 21 -3 21
-7 21 -278z"/>
<path d="M3120 1198 c-106 -24 -169 -105 -196 -249 -24 -125 -15 -469 14 -557
41 -127 116 -182 251 -182 101 0 147 16 201 70 36 35 51 61 70 120 24 71 25
88 25 310 0 217 -2 241 -23 307 -26 85 -68 138 -129 165 -52 23 -153 31 -213
16z m110 -227 c11 -21 15 -497 4 -525 -8 -21 -60 -21 -68 0 -3 9 -6 129 -6
268 0 183 3 255 12 264 18 18 46 14 58 -7z"/>
<path d="M3950 1201 c-45 -14 -84 -39 -114 -70 -17 -17 -33 -31 -38 -31 -4 0
-8 20 -8 45 l0 45 -110 0 -110 0 0 -480 0 -480 125 0 125 0 0 358 c0 265 3
361 12 370 18 18 56 14 68 -7 6 -13 10 -148 10 -370 l0 -351 120 0 121 0 -3
438 c-3 396 -5 440 -21 469 -9 18 -28 40 -40 48 -28 18 -103 27 -137 16z"/>
<path d="M10 710 l0 -480 480 0 480 0 0 480 0 480 -480 0 -480 0 0 -480z m659
436 c-2 -2 -43 -20 -91 -41 l-88 -37 -87 37 c-49 21 -90 39 -92 41 -2 2 78 4
179 4 101 0 181 -2 179 -4z m-443 -26 c88 -21 216 -70 212 -81 -2 -3 -38 -35
-81 -69 -43 -34 -106 -98 -139 -141 -34 -44 -62 -79 -63 -79 -2 0 -17 35 -34
78 -37 93 -56 165 -66 250 l-7 62 49 0 c26 0 85 -9 129 -20z m700 -41 c-10
-86 -42 -204 -74 -271 l-27 -58 -58 75 c-52 67 -119 131 -202 192 l-30 22 68
31 c84 38 204 68 276 69 l54 1 -7 -61z m-341 -132 c79 -62 136 -124 188 -201
l26 -39 -38 -56 c-44 -64 -154 -172 -223 -220 l-48 -32 -46 32 c-71 48 -176
151 -222 218 l-42 59 59 79 c73 97 218 223 255 223 6 0 47 -28 91 -63z m-525
-78 c0 -6 15 -44 34 -84 l34 -74 -35 -83 c-20 -46 -40 -87 -44 -93 -5 -5 -9
67 -9 168 0 111 4 177 10 177 6 0 10 -5 10 -11z m880 -159 c0 -107 -4 -170
-10 -170 -5 0 -10 5 -10 11 0 6 -16 44 -34 85 l-35 75 35 71 c18 40 34 78 34
85 0 7 5 13 10 13 6 0 10 -63 10 -170z m-653 -200 c39 -41 90 -86 112 -100 22
-14 39 -29 37 -35 -7 -26 -207 -88 -323 -101 l-63 -7 0 29 c0 56 38 211 71
289 l33 79 30 -39 c17 -22 63 -74 103 -115z m613 -42 c10 -39 22 -100 26 -135
l7 -65 -69 7 c-77 8 -203 42 -279 75 l-50 22 35 26 c60 46 180 165 218 216
l36 50 29 -63 c16 -34 37 -94 47 -133z m-339 -153 c41 -19 79 -35 86 -35 7 0
13 -4 13 -10 0 -6 -63 -10 -170 -10 -107 0 -170 4 -170 10 0 6 6 10 13 10 7 0
44 15 82 34 39 19 71 35 72 35 1 1 34 -15 74 -34z"/>
<path d="M1250 710 l0 -480 120 0 120 0 0 480 0 480 -120 0 -120 0 0 -480z"/>
</g>
</svg>
